<?xml version="1.0" encoding="UTF-8"?>
<svg width="161px" height="48px" viewBox="0 0 161 48" version="1.1" xmlns="http://www.w3.org/2000/svg" xmlns:xlink="http://www.w3.org/1999/xlink">
    <!-- Generator: sketchtool 61.2 (101010) - https://sketch.com -->
    <title>AA7A78A5-511C-4416-AEEB-E94C7047999B</title>
    <desc>Created with sketchtool.</desc>
    <defs>
        <linearGradient x1="61.024%" y1="4.84%" x2="26.11536%" y2="71.968%" id="linearGradient-1">
            <stop stop-color="#00A0FF" offset="0%"></stop>
            <stop stop-color="#00A1FF" offset="0.7%"></stop>
            <stop stop-color="#00BEFF" offset="26%"></stop>
            <stop stop-color="#00D2FF" offset="51.2%"></stop>
            <stop stop-color="#00DFFF" offset="76%"></stop>
            <stop stop-color="#00E3FF" offset="100%"></stop>
        </linearGradient>
        <linearGradient x1="107.724138%" y1="49.4235294%" x2="-130.669951%" y2="49.4235294%" id="linearGradient-2">
            <stop stop-color="#FFE000" offset="0%"></stop>
            <stop stop-color="#FFBD00" offset="40.9%"></stop>
            <stop stop-color="#FFA500" offset="77.5%"></stop>
            <stop stop-color="#FF9C00" offset="100%"></stop>
        </linearGradient>
        <linearGradient x1="86.3892216%" y1="30.8292932%" x2="-49.8862275%" y2="136.002473%" id="linearGradient-3">
            <stop stop-color="#FF3A44" offset="0%"></stop>
            <stop stop-color="#C31162" offset="100%"></stop>
        </linearGradient>
        <linearGradient x1="-18.5808383%" y1="-11.6832997%" x2="42.2754491%" y2="35.0657182%" id="linearGradient-4">
            <stop stop-color="#32A071" offset="0%"></stop>
            <stop stop-color="#2DA771" offset="6.9%"></stop>
            <stop stop-color="#15CF74" offset="47.6%"></stop>
            <stop stop-color="#06E775" offset="80.1%"></stop>
            <stop stop-color="#00F076" offset="100%"></stop>
        </linearGradient>
    </defs>
    <g id="Website" stroke="none" stroke-width="1" fill="none" fill-rule="evenodd">
        <g id="Desktop" transform="translate(-816.000000, -4189.000000)" fill-rule="nonzero">
            <g id="Download" transform="translate(0.000000, 3957.000000)">
                <g id="copy" transform="translate(415.000000, 120.000000)">
                    <g id="badges" transform="translate(208.000000, 112.000000)">
                        <g id="button.google" transform="translate(193.000000, 0.000000)">
                            <path d="M154.274953,47.4692163 L5.93365204,47.4692163 C2.6108069,47.4692163 0,44.8584094 0,41.5355642 L0,5.93365204 C0,2.6108069 2.6108069,0 5.93365204,0 L154.274953,0 C157.597798,0 160.208605,2.6108069 160.208605,5.93365204 L160.208605,41.5355642 C160.208605,44.8584094 157.597798,47.4692163 154.274953,47.4692163 Z" id="Path" fill="#000000"></path>
                            <path d="M154.274953,0.949384326 C157.004433,0.949384326 159.259221,3.2041721 159.259221,5.93365204 L159.259221,41.5355642 C159.259221,44.2650442 157.004433,46.519832 154.274953,46.519832 L5.93365204,46.519832 C3.2041721,46.519832 0.949384326,44.2650442 0.949384326,41.5355642 L0.949384326,5.93365204 C0.949384326,3.2041721 3.2041721,0.949384326 5.93365204,0.949384326 L154.274953,0.949384326 M154.274953,0 L5.93365204,0 C2.6108069,0 0,2.72947994 0,5.93365204 L0,41.5355642 C0,44.8584094 2.6108069,47.4692163 5.93365204,47.4692163 L154.274953,47.4692163 C157.597798,47.4692163 160.208605,44.8584094 160.208605,41.5355642 L160.208605,5.93365204 C160.208605,2.72947994 157.597798,0 154.274953,0 Z" id="Shape" fill="#000000"></path>
                            <path d="M56.2510213,12.1046502 C56.2510213,13.0540345 56.0136752,13.8847458 55.42031,14.478111 C54.7082718,15.1901492 53.8775605,15.5461683 52.8095031,15.5461683 C51.7414457,15.5461683 50.9107345,15.1901492 50.1986962,14.478111 C49.486658,13.7660727 49.1306389,12.9353614 49.1306389,11.8673041 C49.1306389,10.7992467 49.486658,9.96853542 50.1986962,9.25649718 C50.9107345,8.54445893 51.7414457,8.18843981 52.8095031,8.18843981 C53.2841953,8.18843981 53.7588874,8.30711285 54.2335796,8.54445893 C54.7082718,8.78180501 55.0642909,9.01915109 55.301637,9.37517022 L54.7082718,9.96853542 C54.2335796,9.37517022 53.6402144,9.13782413 52.8095031,9.13782413 C52.0974649,9.13782413 51.3854266,9.37517022 50.9107345,9.96853542 C50.3173693,10.4432276 50.0800232,11.1552658 50.0800232,11.9859771 C50.0800232,12.8166884 50.3173693,13.5287266 50.9107345,14.0034188 C51.5040997,14.478111 52.0974649,14.8341301 52.8095031,14.8341301 C53.6402144,14.8341301 54.2335796,14.596784 54.8269448,14.0034188 C55.1829639,13.6473997 55.42031,13.1727075 55.42031,12.5793423 L52.8095031,12.5793423 L52.8095031,11.629958 L56.2510213,11.629958 L56.2510213,12.1046502 L56.2510213,12.1046502 Z M61.7099812,9.13782413 L58.5058091,9.13782413 L58.5058091,11.3926119 L61.4726351,11.3926119 L61.4726351,12.2233232 L58.5058091,12.2233232 L58.5058091,14.478111 L61.7099812,14.478111 L61.7099812,15.4274953 L57.5564247,15.4274953 L57.5564247,8.30711285 L61.7099812,8.30711285 L61.7099812,9.13782413 Z M65.6261915,15.4274953 L64.6768072,15.4274953 L64.6768072,9.13782413 L62.6593655,9.13782413 L62.6593655,8.30711285 L67.6436332,8.30711285 L67.6436332,9.13782413 L65.6261915,9.13782413 L65.6261915,15.4274953 Z M71.0851514,15.4274953 L71.0851514,8.30711285 L72.0345357,8.30711285 L72.0345357,15.4274953 L71.0851514,15.4274953 Z M76.0694191,15.4274953 L75.1200348,15.4274953 L75.1200348,9.13782413 L73.1025931,9.13782413 L73.1025931,8.30711285 L77.9681877,8.30711285 L77.9681877,9.13782413 L75.9507461,9.13782413 L75.9507461,15.4274953 L76.0694191,15.4274953 Z M87.343358,14.478111 C86.6313197,15.1901492 85.8006084,15.5461683 84.7325511,15.5461683 C83.6644937,15.5461683 82.8337824,15.1901492 82.1217442,14.478111 C81.4097059,13.7660727 81.0536868,12.9353614 81.0536868,11.8673041 C81.0536868,10.7992467 81.4097059,9.96853542 82.1217442,9.25649718 C82.8337824,8.54445893 83.6644937,8.18843981 84.7325511,8.18843981 C85.8006084,8.18843981 86.6313197,8.54445893 87.343358,9.25649718 C88.0553962,9.96853542 88.4114153,10.7992467 88.4114153,11.8673041 C88.4114153,12.9353614 88.0553962,13.7660727 87.343358,14.478111 Z M82.8337824,13.8847458 C83.3084746,14.3594379 84.0205128,14.715457 84.7325511,14.715457 C85.4445893,14.715457 86.1566276,14.478111 86.6313197,13.8847458 C87.1060119,13.4100536 87.462031,12.6980154 87.462031,11.8673041 C87.462031,11.0365928 87.2246849,10.3245545 86.6313197,9.84986238 C86.1566276,9.37517022 85.4445893,9.01915109 84.7325511,9.01915109 C84.0205128,9.01915109 83.3084746,9.25649718 82.8337824,9.84986238 C82.3590903,10.3245545 82.0030711,11.0365928 82.0030711,11.8673041 C82.0030711,12.6980154 82.2404172,13.4100536 82.8337824,13.8847458 Z M89.7168188,15.4274953 L89.7168188,8.30711285 L90.7848761,8.30711285 L94.2263943,13.8847458 L94.2263943,8.30711285 L95.1757786,8.30711285 L95.1757786,15.4274953 L94.2263943,15.4274953 L90.5475301,9.6125163 L90.5475301,15.4274953 L89.7168188,15.4274953 L89.7168188,15.4274953 Z" id="Shape" fill="#FFFFFF"></path>
                            <path d="M80.8163407,25.8707229 C77.9681877,25.8707229 75.7134,28.0068376 75.7134,30.9736636 C75.7134,33.8218166 77.9681877,36.0766044 80.8163407,36.0766044 C83.6644937,36.0766044 85.9192815,33.9404896 85.9192815,30.9736636 C85.9192815,27.8881646 83.6644937,25.8707229 80.8163407,25.8707229 Z M80.8163407,33.9404896 C79.2735912,33.9404896 77.9681877,32.6350862 77.9681877,30.8549906 C77.9681877,29.074895 79.2735912,27.7694915 80.8163407,27.7694915 C82.3590903,27.7694915 83.6644937,28.9562219 83.6644937,30.8549906 C83.6644937,32.6350862 82.3590903,33.9404896 80.8163407,33.9404896 Z M69.7797479,25.8707229 C66.931595,25.8707229 64.6768072,28.0068376 64.6768072,30.9736636 C64.6768072,33.8218166 66.931595,36.0766044 69.7797479,36.0766044 C72.6279009,36.0766044 74.8826887,33.9404896 74.8826887,30.9736636 C74.8826887,27.8881646 72.6279009,25.8707229 69.7797479,25.8707229 Z M69.7797479,33.9404896 C68.2369984,33.9404896 66.931595,32.6350862 66.931595,30.8549906 C66.931595,29.074895 68.2369984,27.7694915 69.7797479,27.7694915 C71.3224975,27.7694915 72.6279009,28.9562219 72.6279009,30.8549906 C72.6279009,32.6350862 71.3224975,33.9404896 69.7797479,33.9404896 Z M56.6070404,27.4134724 L56.6070404,29.5495871 L61.7099812,29.5495871 C61.5913081,30.7363175 61.116616,31.6857019 60.5232508,32.2790671 C59.8112125,32.9911053 58.6244821,33.8218166 56.6070404,33.8218166 C53.4028683,33.8218166 51.0294075,31.3296827 51.0294075,28.1255106 C51.0294075,24.9213385 53.5215414,22.4292047 56.6070404,22.4292047 C58.268463,22.4292047 59.5738664,23.1412429 60.5232508,23.9719542 L62.0660003,22.4292047 C60.7605968,21.2424743 59.0991743,20.29309 56.7257135,20.29309 C52.453484,20.29309 48.7746197,23.8532812 48.7746197,28.1255106 C48.7746197,32.3977401 52.453484,35.9579313 56.7257135,35.9579313 C59.0991743,35.9579313 60.7605968,35.2458931 62.1846733,33.7031436 C63.6087498,32.2790671 64.083442,30.2616254 64.083442,28.7188759 C64.083442,28.2441837 64.083442,27.7694915 63.9647689,27.4134724 L56.6070404,27.4134724 L56.6070404,27.4134724 Z M110.484601,29.074895 C110.009909,27.8881646 108.823178,25.8707229 106.212371,25.8707229 C103.601565,25.8707229 101.46545,27.8881646 101.46545,30.9736636 C101.46545,33.8218166 103.601565,36.0766044 106.449718,36.0766044 C108.704505,36.0766044 110.128582,34.6525279 110.603274,33.8218166 L108.941851,32.6350862 C108.348486,33.4657975 107.636448,34.0591627 106.449718,34.0591627 C105.262987,34.0591627 104.550949,33.5844705 103.957584,32.5164132 L110.721947,29.6682602 L110.484601,29.074895 L110.484601,29.074895 Z M103.601565,30.7363175 C103.601565,28.8375489 105.144314,27.7694915 106.212371,27.7694915 C107.043083,27.7694915 107.873794,28.2441837 108.11114,28.8375489 L103.601565,30.7363175 Z M98.0239316,35.6019122 L100.278719,35.6019122 L100.278719,20.7677821 L98.0239316,20.7677821 L98.0239316,35.6019122 Z M94.4637404,26.9387802 C93.8703752,26.345415 92.9209909,25.7520498 91.7342605,25.7520498 C89.2421266,25.7520498 86.8686658,28.0068376 86.8686658,30.8549906 C86.8686658,33.7031436 89.1234536,35.8392583 91.7342605,35.8392583 C92.9209909,35.8392583 93.8703752,35.2458931 94.3450674,34.6525279 L94.4637404,34.6525279 L94.4637404,35.3645661 C94.4637404,37.2633348 93.395683,38.3313921 91.7342605,38.3313921 C90.428857,38.3313921 89.4794727,37.3820078 89.2421266,36.5512965 L87.343358,37.3820078 C87.9367232,38.6874113 89.3607997,40.3488338 91.8529335,40.3488338 C94.4637404,40.3488338 96.5998551,38.8060843 96.5998551,35.12722 L96.5998551,26.108069 L94.4637404,26.108069 L94.4637404,26.9387802 L94.4637404,26.9387802 Z M91.8529335,33.9404896 C90.310184,33.9404896 89.0047805,32.6350862 89.0047805,30.8549906 C89.0047805,29.074895 90.310184,27.7694915 91.8529335,27.7694915 C93.395683,27.7694915 94.5824134,29.074895 94.5824134,30.8549906 C94.5824134,32.6350862 93.395683,33.9404896 91.8529335,33.9404896 Z M120.809155,20.7677821 L115.468869,20.7677821 L115.468869,35.6019122 L117.723656,35.6019122 L117.723656,30.0242793 L120.809155,30.0242793 C123.301289,30.0242793 125.67475,28.2441837 125.67475,25.3960307 C125.67475,22.5478777 123.301289,20.7677821 120.809155,20.7677821 L120.809155,20.7677821 Z M120.927828,27.8881646 L117.723656,27.8881646 L117.723656,22.7852238 L120.927828,22.7852238 C122.589251,22.7852238 123.538635,24.2093003 123.538635,25.2773577 C123.419962,26.5827611 122.470578,27.8881646 120.927828,27.8881646 Z M134.575228,25.7520498 C132.913806,25.7520498 131.252383,26.4640881 130.659018,28.0068376 L132.67646,28.8375489 C133.151152,28.0068376 133.86319,27.7694915 134.693901,27.7694915 C135.880632,27.7694915 136.948689,28.4815298 137.067362,29.6682602 L137.067362,29.7869332 C136.711343,29.5495871 135.761959,29.193568 134.812574,29.193568 C132.67646,29.193568 130.540345,30.3802984 130.540345,32.5164132 C130.540345,34.5338548 132.32044,35.8392583 134.219209,35.8392583 C135.761959,35.8392583 136.473997,35.12722 137.067362,34.4151818 L137.186035,34.4151818 L137.186035,35.6019122 L139.32215,35.6019122 L139.32215,29.9056063 C139.084804,27.2947994 137.067362,25.7520498 134.575228,25.7520498 L134.575228,25.7520498 Z M134.337882,33.9404896 C133.625844,33.9404896 132.557786,33.5844705 132.557786,32.6350862 C132.557786,31.4483558 133.86319,31.0923367 134.931247,31.0923367 C135.880632,31.0923367 136.355324,31.3296827 136.948689,31.5670288 C136.711343,32.9911053 135.524612,33.9404896 134.337882,33.9404896 L134.337882,33.9404896 Z M146.798551,26.108069 L144.306417,32.5164132 L144.187744,32.5164132 L141.576938,26.108069 L139.203477,26.108069 L143.119687,35.12722 L140.864899,40.1114878 L143.119687,40.1114878 L149.172012,26.108069 L146.798551,26.108069 L146.798551,26.108069 Z M126.861481,35.6019122 L129.116268,35.6019122 L129.116268,20.7677821 L126.861481,20.7677821 L126.861481,35.6019122 Z" id="Shape" fill="#FFFFFF"></path>
                            <g id="Group" transform="translate(11.867304, 8.435280)">
                                <path d="M0.474692163,0.46519832 C0.118673041,0.821217442 0,1.41458265 0,2.12662089 L0,28.3533629 C0,29.0654011 0.237346081,29.6587663 0.593365204,30.0147855 L0.712038244,30.1334585 L15.4274953,15.4180014 L15.4274953,15.1806554 L0.474692163,0.46519832 Z" id="Path" fill="url(#linearGradient-1)"></path>
                                <path d="M20.1744169,20.4022692 L15.3088223,15.5366745 L15.3088223,15.1806554 L20.1744169,10.3150607 L20.29309,10.4337337 L26.108069,13.7565789 C27.7694915,14.7059632 27.7694915,16.2487127 26.108069,17.1980971 L20.1744169,20.4022692 L20.1744169,20.4022692 Z" id="Path" fill="url(#linearGradient-2)"></path>
                                <path d="M20.29309,20.2835961 L15.3088223,15.2993284 L0.474692163,30.1334585 C1.06805737,30.7268237 1.89876865,30.7268237 2.96682602,30.2521315 L20.29309,20.2835961" id="Path" fill="url(#linearGradient-3)"></path>
                                <path d="M20.29309,10.3150607 L2.96682602,0.46519832 C1.89876865,-0.128166884 1.06805737,-0.00949384326 0.474692163,0.58387136 L15.3088223,15.2993284 L20.29309,10.3150607 L20.29309,10.3150607 Z" id="Path" fill="url(#linearGradient-4)"></path>
                                <path d="M20.1744169,20.1649231 L2.96682602,29.8961124 C2.01744169,30.4894776 1.18673041,30.3708046 0.593365204,29.8961124 L0.474692163,30.0147855 L0.593365204,30.1334585 C1.18673041,30.6081507 2.01744169,30.7268237 2.96682602,30.1334585 L20.1744169,20.1649231 Z" id="Path" fill="#000000" opacity="0.2"></path>
                                <path d="M0.474692163,29.8961124 C0.118673041,29.5400933 -1.11022302e-16,28.9467281 -1.11022302e-16,28.2346898 L-1.11022302e-16,28.3533629 C-1.11022302e-16,29.0654011 0.237346081,29.6587663 0.593365204,30.0147855 L0.593365204,29.8961124 L0.474692163,29.8961124 Z M26.108069,16.8420779 L20.1744169,20.1649231 L20.29309,20.2835961 L26.108069,16.960751 C26.9387802,16.4860588 27.2947994,15.8926936 27.2947994,15.2993284 C27.2947994,15.8926936 26.8201072,16.3673858 26.108069,16.8420779 L26.108069,16.8420779 Z" id="Shape" fill="#000000" opacity="0.12"></path>
                                <path d="M2.96682602,0.58387136 L26.108069,13.7565789 C26.8201072,14.231271 27.2947994,14.7059632 27.2947994,15.2993284 C27.2947994,14.7059632 26.9387802,14.112598 26.108069,13.6379058 L2.96682602,0.46519832 C1.30540345,-0.484186006 0,0.227852238 0,2.12662089 L0,2.24529393 C0,0.46519832 1.30540345,-0.365512965 2.96682602,0.58387136 Z" id="Path" fill="#FFFFFF" opacity="0.25"></path>
                            </g>
                        </g>
                    </g>
                </g>
            </g>
        </g>
    </g>
</svg>