<?xml version="1.0" encoding="UTF-8"?>
<svg width="161px" height="48px" viewBox="0 0 161 48" version="1.1" xmlns="http://www.w3.org/2000/svg" xmlns:xlink="http://www.w3.org/1999/xlink">
    <!-- Generator: sketchtool 61.2 (101010) - https://sketch.com -->
    <title>2C0C477D-DD7D-4884-9D10-ABAC52D1194D</title>
    <desc>Created with sketchtool.</desc>
    <defs>
        <linearGradient x1="49.9984472%" y1="100.265508%" x2="49.9984472%" y2="-260.382794%" id="linearGradient-1">
            <stop stop-color="#1A1A1A" stop-opacity="0.1" offset="0%"></stop>
            <stop stop-color="#212121" stop-opacity="0.151" offset="12.3%"></stop>
            <stop stop-color="#353535" stop-opacity="0.227" offset="30.8%"></stop>
            <stop stop-color="#575757" stop-opacity="0.318" offset="53.2%"></stop>
            <stop stop-color="#858585" stop-opacity="0.421" offset="78.3%"></stop>
            <stop stop-color="#B3B3B3" stop-opacity="0.51" offset="100%"></stop>
        </linearGradient>
    </defs>
    <g id="Website" stroke="none" stroke-width="1" fill="none" fill-rule="evenodd">
        <g id="Desktop" transform="translate(-623.000000, -4189.000000)" fill-rule="nonzero">
            <g id="Download" transform="translate(0.000000, 3957.000000)">
                <g id="copy" transform="translate(415.000000, 120.000000)">
                    <g id="badges" transform="translate(208.000000, 112.000000)">
                        <g id="button.ios">
                            <path d="M159.124543,41.8595409 C159.124543,43.0659908 158.644831,44.2229585 157.791071,45.075602 C156.937311,45.9282456 155.779537,46.4066227 154.572768,46.4053652 L5.61433062,46.4053652 C3.10026158,46.4079864 1.05989606,44.3729433 1.05661964,41.8595409 L1.05661964,5.60809603 C1.05989433,3.09373413 3.09930055,1.05699243 5.61433062,1.05633978 L154.57158,1.05633978 C155.778992,1.05633978 156.936934,1.53593627 157.790591,2.38959029 C158.644249,3.24324431 159.124543,4.40100437 159.124543,5.60809603 L159.124543,41.8595409 Z" id="Path" fill="#000000"></path>
                            <path d="M154.572768,47.4628894 L5.61433062,47.4628894 C2.51759715,47.4622404 0.0058922368,44.9554487 0,41.8595409 L0,5.60928293 C0.00458111788,2.51187059 2.51609541,0.00261433279 5.61433062,0 L154.57158,0 C157.669275,0.00391864653 160.180026,2.51241225 160.185913,5.60928293 L160.185913,41.8595409 C160.188286,44.950225 157.665458,47.4628894 154.572768,47.4628894 L154.572768,47.4628894 Z" id="Path" fill="#000000"></path>
                            <path d="M159.124543,41.8595409 C159.124543,43.0659908 158.644831,44.2229585 157.791071,45.075602 C156.937311,45.9282456 155.779537,46.4066227 154.572768,46.4053652 L5.61433062,46.4053652 C3.10026158,46.4079864 1.05989606,44.3729433 1.05661964,41.8595409 L1.05661964,5.60809603 C1.05989433,3.09373413 3.09930055,1.05699243 5.61433062,1.05633978 L154.57158,1.05633978 C155.778992,1.05633978 156.936934,1.53593627 157.790591,2.38959029 C158.644249,3.24324431 159.124543,4.40100437 159.124543,5.60809603 L159.124543,41.8595409 Z" id="Path" fill="#000000"></path>
                            <path d="M35.7683555,23.4816025 C35.7339263,19.6562282 38.9014108,17.7951712 39.0462508,17.7085276 C37.2523718,15.0937899 34.4719188,14.7365334 33.4948424,14.7080478 C31.1595943,14.4623598 28.8943918,16.1050275 27.7048043,16.1050275 C26.4914725,16.1050275 24.6596027,14.7317858 22.6852674,14.7721404 C20.1446314,14.811308 17.7678309,16.2818754 16.4642709,18.5654684 C13.7740461,23.2216717 15.7804362,30.0641423 18.3578757,33.8277979 C19.6471891,35.6722384 21.1537625,37.7291337 23.1257234,37.6567329 C25.0549447,37.5783976 25.775583,36.4282928 28.1037079,36.4282928 C30.4104629,36.4282928 31.0871743,37.6567329 33.0983133,37.6104438 C35.1688129,37.5783976 36.4723728,35.758882 37.7165721,33.8990118 C39.2065245,31.7875191 39.8048799,29.7056989 39.8286242,29.5988781 C39.7811357,29.5822615 35.8087207,28.065405 35.7683555,23.4816025 Z M31.9692736,12.2321773 C33.0068979,10.9348971 33.7168513,9.16997883 33.5197739,7.37894879 C32.0179494,7.44541511 30.1397783,8.41748509 29.0582272,9.68627973 C28.1013334,10.8043382 27.24654,12.6369097 27.4673617,14.3602865 C29.1543914,14.4860978 30.8865353,13.5092802 31.9692736,12.2321773 L31.9692736,12.2321773 Z" id="Shape" fill="#FFFFFF"></path>
                            <path d="M154.572768,0 L74.7861131,0 L106.037123,47.4628894 L154.572768,47.4628894 C157.670078,47.460278 160.18121,44.9524654 160.187098,41.8559802 L160.187098,5.60928293 C160.181865,2.51214149 157.670732,0.00326675276 154.572768,0 Z" id="Path" fill="url(#linearGradient-1)"></path>
                            <g id="Group" transform="translate(50.311354, 21.300118)" fill="#FFFFFF">
                                <path d="M13.4004358,16.0919369 L10.7042749,16.0919369 L9.22738181,11.4523502 L4.09387249,11.4523502 L2.68702499,16.0919369 L0.0620968894,16.0919369 L5.14930491,0.296689951 L8.2906707,0.296689951 L13.4004358,16.0919369 L13.4004358,16.0919369 Z M8.78217691,9.50583643 L7.4465622,5.38136369 C7.30528385,4.96001467 7.03934812,3.96776742 6.64994223,2.40580882 L6.60245371,2.40580882 C6.44574158,3.07759344 6.19523962,4.0698407 5.85213505,5.38136369 L4.53907739,9.50583643 L8.78217691,9.50583643 Z M26.4574051,10.2571433 C26.4574051,12.1941618 25.9314698,13.7252611 24.8784118,14.8492541 C23.9357646,15.8498096 22.7639853,16.3494939 21.3666355,16.3494939 C19.8576877,16.3494939 18.7725749,15.8118289 18.1136717,14.7341249 L18.1136717,20.7101595 L15.5825334,20.7101595 L15.5825334,8.44593595 C15.5825334,7.22936486 15.5504786,5.98193439 15.4887436,4.70245767 L17.7147681,4.70245767 L17.8560464,6.50773049 L17.903535,6.50773049 C18.7476434,5.14754466 20.0286464,4.46745174 21.7477309,4.46745174 C23.0916561,4.46745174 24.2135724,4.99799543 25.1111055,6.0602697 C26.0074514,7.12491778 26.4574051,8.52308436 26.4574051,10.2571433 Z M23.8787783,10.3497214 C23.8787783,9.24115804 23.6294636,8.32724609 23.1284597,7.60679862 C22.5811545,6.85786558 21.8462696,6.48280562 20.9249922,6.48280562 C20.3005181,6.48280562 19.7330303,6.69169978 19.2260903,7.1035536 C18.7179631,7.51896812 18.3855435,8.0613808 18.2300185,8.73316542 C18.1605891,8.98439819 18.1211368,9.24296124 18.1124845,9.50346263 L18.1124845,11.4036873 C18.1124845,12.2309557 18.366548,12.930039 18.8746752,13.5021241 C19.3828024,14.0718355 20.0428929,14.357878 20.8549467,14.357878 C21.8082787,14.357878 22.5502869,13.9887526 23.0809712,13.2564361 C23.6128426,12.5217459 23.8787783,11.5532366 23.8787783,10.3497214 L23.8787783,10.3497214 Z M39.5606758,10.2571433 C39.5606758,12.1941618 39.0347404,13.7252611 37.9816824,14.8492541 C37.037848,15.8498096 35.867256,16.3494939 34.468719,16.3494939 C32.9597711,16.3494939 31.8746584,15.8118289 31.2157551,14.7341249 L31.2157551,20.7101595 L28.6846169,20.7101595 L28.6846169,8.44593595 C28.6846169,7.22936486 28.6525621,5.98193439 28.590827,4.70245767 L30.8168515,4.70245767 L30.9581299,6.50773049 L31.0056184,6.50773049 C31.8485397,5.14754466 33.1295426,4.46745174 34.8498144,4.46745174 C36.1925523,4.46745174 37.3144687,4.99799543 38.2143762,6.0602697 C39.1095349,7.12491778 39.5606758,8.52308436 39.5606758,10.2571433 L39.5606758,10.2571433 Z M36.9808618,10.3497214 C36.9808618,9.24115804 36.7303599,8.32724609 36.2293559,7.60679862 C35.6820507,6.85786558 34.9495403,6.48280562 34.0282629,6.48280562 C33.4037888,6.48280562 32.836301,6.69169978 32.3269866,7.1035536 C31.8188594,7.51896812 31.4876269,8.0613808 31.332102,8.73316542 C31.2549332,9.04650666 31.2133807,9.30168987 31.2133807,9.50346263 L31.2133807,11.4036873 C31.2133807,12.2309557 31.4686315,12.930039 31.9743843,13.5021241 C32.4825115,14.0706486 33.142602,14.357878 33.9570301,14.357878 C34.9115494,14.357878 35.6535576,13.9887526 36.1830546,13.2564361 C36.7149261,12.5217459 36.9808618,11.5532366 36.9808618,10.3497214 L36.9808618,10.3497214 Z M54.2108852,11.6612443 C54.2108852,13.0060005 53.7407488,14.0991341 52.8064121,14.9430191 C51.7782856,15.8640524 50.342945,16.325756 48.5027647,16.325756 C46.8026756,16.325756 45.439755,15.9981719 44.4116284,15.341817 L44.9969245,13.2326981 C46.1069687,13.89024 47.3262365,14.217824 48.6535408,14.217824 C49.6080601,14.217824 50.3500682,14.0018084 50.8795653,13.573338 C51.4102495,13.1436807 51.6785597,12.5692218 51.6785597,11.852335 C51.6785597,11.2102229 51.4565508,10.6725578 51.0208436,10.2345922 C50.582762,9.79781349 49.858562,9.39070726 48.8411204,9.0168342 C46.074914,7.98541928 44.6906235,6.47687112 44.6906235,4.49237661 C44.6906235,3.19628331 45.1797553,2.13519593 46.1556445,1.30555379 C47.1315336,0.477098543 48.4255958,0.0628709202 50.0354568,0.0628709202 C51.4731718,0.0628709202 52.6710698,0.313306531 53.6220275,0.812990855 L52.9868685,2.87582068 C52.0917098,2.39156603 51.0813915,2.14943871 49.9511646,2.14943871 C49.0583804,2.14943871 48.3579247,2.36901496 47.8569208,2.80579366 C47.4354601,3.19628331 47.2217618,3.67222966 47.2217618,4.23719341 C47.2217618,4.86031519 47.4651405,5.37780299 47.9495234,5.78372232 C48.3697968,6.15759539 49.1367365,6.56470162 50.2455935,7.00148032 C51.6061397,7.54982749 52.6057731,8.18837895 53.2456809,8.9218823 C53.8903376,9.65538566 54.2108852,10.5704845 54.2108852,11.6612443 Z M62.6009199,6.60149548 L59.8109692,6.60149548 L59.8109692,12.1312562 C59.8109692,13.5377311 60.3024754,14.2391882 61.2878623,14.2391882 C61.7401905,14.2391882 62.1153498,14.2012074 62.4121531,14.1216852 L62.4821986,16.0432741 C61.9835691,16.2296172 61.3270403,16.3233822 60.5137994,16.3233822 C59.5141659,16.3233822 58.7329797,16.0183492 58.1690535,15.4082833 C57.6075018,14.7982174 57.324945,13.7762977 57.324945,12.3377766 L57.324945,6.59674789 L55.6628467,6.59674789 L55.6628467,4.69771008 L57.324945,4.69771008 L57.324945,2.61232918 L59.8109692,1.86220925 L59.8109692,4.69771008 L62.6009199,4.69771008 L62.6009199,6.60149548 L62.6009199,6.60149548 Z M75.1640087,10.3034323 C75.1640087,12.0541078 74.6630048,13.491442 73.6633714,14.615435 C72.6174366,15.7726612 71.2260229,16.3494939 69.4915046,16.3494939 C67.8175342,16.3494939 66.4866683,15.7952123 65.4941582,14.6878359 C64.5016481,13.5780856 64.005393,12.179919 64.005393,10.4933361 C64.005393,8.72841783 64.5182691,7.28277529 65.5404595,6.15878229 C66.5650244,5.03360239 67.944566,4.47101244 69.6790843,4.47101244 C71.3506803,4.47101244 72.6934183,5.026481 73.7096727,6.13504432 C74.680813,7.21037448 75.1640087,8.59904588 75.1640087,10.3034323 Z M72.5402678,10.3615903 C72.5402678,9.31830645 72.3146973,8.42338488 71.8623691,7.67445184 C71.3316849,6.77003509 70.5718685,6.31782671 69.5876689,6.31782671 C68.5737889,6.31782671 67.7961643,6.77003509 67.2666673,7.67445184 C66.8131519,8.42338488 66.5875814,9.33373613 66.5875814,10.4090663 C66.5875814,11.4535371 66.8131519,12.3508325 67.2666673,13.0973917 C67.8139725,14.0018084 68.5773505,14.4540168 69.566299,14.4540168 C70.5338777,14.4540168 71.2925068,13.9923133 71.8409993,13.0748406 C72.3063868,12.3081041 72.5402678,11.407248 72.5402678,10.3615903 Z M83.3949569,6.9278926 C83.1317001,6.88037755 82.8646608,6.85693835 82.5971497,6.85786558 C81.7067399,6.85786558 81.0181563,7.192571 80.5337734,7.86672942 C80.1135,8.46017874 79.9021761,9.21029867 79.9021761,10.1159023 L79.9021761,16.0919369 L77.3710378,16.0919369 L77.3710378,8.28926533 C77.3732951,7.09365879 77.3487532,5.89815179 77.2974306,4.70364457 L79.5020852,4.70364457 L79.5946879,6.88279046 L79.6647334,6.88279046 C79.9330436,6.13385742 80.353317,5.52972602 80.9303026,5.07751764 C81.4584383,4.68237264 82.1001398,4.46839002 82.7597979,4.46745174 C82.9936789,4.46745174 83.2050028,4.48406832 83.3925825,4.51374079 L83.3949569,6.9278926 L83.3949569,6.9278926 Z M94.7150336,9.85834533 C94.7214519,10.2430187 94.6904385,10.6274046 94.6224309,11.0060763 L87.0290161,11.0060763 C87.0575092,12.1312562 87.4255453,12.9929446 88.1307499,13.5863939 C88.7706577,14.1157507 89.5981452,14.381616 90.6143996,14.381616 C91.7386904,14.381616 92.7644425,14.2035812 93.686907,13.8439509 L94.0834362,15.599374 C93.0054467,16.0693859 91.7327543,16.3032049 90.2641718,16.3032049 C88.4975987,16.3032049 87.1109338,15.7833433 86.1018027,14.7459939 C85.095046,13.7074576 84.5904805,12.3116648 84.5904805,10.5633631 C84.5904805,8.84710769 85.0594296,7.41689484 85.9985152,6.27628526 C86.9815276,5.05852726 88.310019,4.44964826 89.981615,4.44964826 C91.6235307,4.44964826 92.8665428,5.05852726 93.7106513,6.27628526 C94.3790523,7.24123384 94.7150336,8.43762766 94.7150336,9.85834533 L94.7150336,9.85834533 Z M92.3014294,9.20199038 C92.3192376,8.45068355 92.1530278,7.80382379 91.8099232,7.25666353 C91.3718416,6.55164574 90.6975045,6.20032374 89.7940354,6.20032374 C88.9665479,6.20032374 88.2922108,6.54333745 87.7793348,7.23173865 C87.3578742,7.77889892 87.1073722,8.43644076 87.0302033,9.19961658 L92.3014294,9.20199038 Z" id="Shape"></path>
                            </g>
                            <g id="Group" transform="translate(51.818856, 7.761970)" fill="#FFFFFF">
                                <path d="M1.85623428,8.25047946 C1.15221693,8.25047946 0.543176619,8.2160594 0.0362366373,8.15790137 L0.0362366373,0.521395572 C0.745250486,0.41189839 1.46173556,0.357928217 2.17915623,0.359921138 C5.0818922,0.359921138 6.41869412,1.78781641 6.41869412,4.11532463 C6.41869412,6.80008933 4.83970073,8.25047946 1.85623428,8.25047946 Z M2.28125656,1.33916873 C1.88947624,1.33916873 1.55586937,1.3629067 1.27924872,1.41987784 L1.27924872,7.22499904 C1.42883757,7.24873701 1.71614314,7.2594191 2.11979558,7.2594191 C4.02171092,7.2594191 5.10444925,6.17696755 5.10444925,4.14974469 C5.10444925,2.34209807 4.12499846,1.33916873 2.28125656,1.33916873 L2.28125656,1.33916873 Z M10.5846248,8.30863749 C8.94864518,8.30863749 7.8884639,7.0873188 7.8884639,5.42922141 C7.8884639,3.70109701 8.97120223,2.46909623 10.6772274,2.46909623 C12.2894628,2.46909623 13.3733883,3.63225688 13.3733883,5.33783022 C13.3733883,7.0873188 12.2562208,8.30863749 10.5846248,8.30863749 Z M10.6321133,3.37826058 C9.73339302,3.37826058 9.15759468,4.21858481 9.15759468,5.39361445 C9.15759468,6.54609302 9.74526515,7.38641726 10.6202412,7.38641726 C11.4952172,7.38641726 12.0828877,6.48793499 12.0828877,5.36987648 C12.0828877,4.23045379 11.5070893,3.37826058 10.6321133,3.37826058 Z M22.7025086,2.58422539 L20.9513693,8.18163934 L19.8104576,8.18163934 L19.0850704,5.75087094 C18.9047076,5.15628867 18.7545313,4.55296959 18.6351166,3.94322433 L18.6113724,3.94322433 C18.519957,4.55329022 18.3466239,5.16454302 18.1626058,5.75087094 L17.3909173,8.18163934 L16.2381334,8.18163934 L14.5902817,2.58422539 L15.8689102,2.58422539 L16.502882,5.24525212 C16.6524708,5.87905599 16.7783154,6.4772529 16.8827901,7.04221665 L16.9065344,7.04221665 C16.9979498,6.5710179 17.1475387,5.98231617 17.3671731,5.25712111 L18.1626058,2.58541229 L19.1764858,2.58541229 L19.9374894,5.20014998 C20.1215074,5.83395385 20.2710963,6.45588873 20.3874431,7.04340355 L20.4206851,7.04340355 C20.5014156,6.46775771 20.6284474,5.85650492 20.8005933,5.20014998 L21.4808664,2.58541229 L22.7025086,2.58422539 L22.7025086,2.58422539 Z M29.1490756,8.18163934 L27.9048763,8.18163934 L27.9048763,4.96751784 C27.9048763,3.97764439 27.5249681,3.48152076 26.7758367,3.48152076 C26.0385774,3.48152076 25.5316374,4.11532463 25.5316374,4.85238868 L25.5316374,8.18163934 L24.2874381,8.18163934 L24.2874381,4.18416475 C24.2874381,3.68922802 24.2755659,3.15868433 24.2411368,2.58303849 L25.3357472,2.58303849 L25.3939207,3.4471007 L25.4283498,3.4471007 C25.7631439,2.84890379 26.4422298,2.46909623 27.2032334,2.46909623 C28.3785743,2.46909623 29.1502628,3.36757849 29.1502628,4.8298376 L29.1490756,8.18163934 L29.1490756,8.18163934 Z M32.5801214,8.18163934 L31.3347349,8.18163934 L31.3347349,0.0157767546 L32.5801214,0.0157767546 L32.5801214,8.18163934 Z M37.1164625,8.30863749 C35.4816701,8.30863749 34.4203017,7.0873188 34.4203017,5.42922141 C34.4203017,3.70109701 35.50304,2.46909623 37.207878,2.46909623 C38.8213005,2.46909623 39.9040398,3.63225688 39.9040398,5.33783022 C39.9052261,7.0873188 38.7868713,8.30863749 37.1164625,8.30863749 Z M37.1627639,3.37826058 C36.2640436,3.37826058 35.6882452,4.21858481 35.6882452,5.39361445 C35.6882452,6.54609302 36.2771029,7.38641726 37.1497045,7.38641726 C38.0258678,7.38641726 38.6123529,6.48793499 38.6123529,5.36987648 C38.6135382,4.23045379 38.0389271,3.37826058 37.1627639,3.37826058 L37.1627639,3.37826058 Z M44.8096033,8.18163934 L44.7193751,7.53715338 L44.6861331,7.53715338 C44.3062249,8.05582808 43.7517964,8.30863749 43.0489663,8.30863749 C42.0457712,8.30863749 41.3334434,7.6059935 41.3334434,6.66122219 C41.3334434,5.27967218 42.5313414,4.56515921 44.6054026,4.56515921 L44.6054026,4.46189903 C44.6054026,3.72483498 44.2148095,3.3557095 43.443121,3.3557095 C42.8910669,3.3557095 42.406684,3.49457664 41.9804745,3.77112402 L41.7275981,2.95335087 C42.245223,2.63051444 42.8910669,2.46909623 43.6496961,2.46909623 C45.1123426,2.46909623 45.8507891,3.24058034 45.8507891,4.78473546 L45.8507891,6.84637838 C45.8507891,7.41134213 45.8757206,7.84930772 45.9315196,8.18282624 L44.8096033,8.18163934 L44.8096033,8.18163934 Z M44.6386446,5.39361445 C43.2567286,5.39361445 42.5633961,5.72831987 42.5633961,6.52235505 C42.5633961,7.10986987 42.9207473,7.39709934 43.4170023,7.39709934 C44.0497869,7.39709934 44.6386446,6.9140316 44.6386446,6.25767666 L44.6386446,5.39361445 L44.6386446,5.39361445 Z M51.8925165,8.18163934 L51.834343,7.28315707 L51.7999138,7.28315707 C51.4425627,7.96206309 50.8418329,8.30863749 50.0024732,8.30863749 C48.652612,8.30863749 47.6529786,7.12173886 47.6529786,5.45177249 C47.6529786,3.70109701 48.6894156,2.46790933 50.1045736,2.46790933 C50.853705,2.46790933 51.3843893,2.72071874 51.683567,3.22871135 L51.7084984,3.22871135 L51.7084984,0.0157767546 L52.9538849,0.0157767546 L52.9538849,6.67309118 C52.9538849,7.21431695 52.9669443,7.72112267 53.0001863,8.18163934 L51.8925165,8.18163934 Z M51.7084984,4.88799564 C51.7084984,4.10464254 51.1896863,3.43641861 50.3978152,3.43641861 C49.4753506,3.43641861 48.9114244,4.25419177 48.9114244,5.40548344 C48.9114244,6.53422404 49.4967205,7.30689505 50.3728837,7.30689505 C51.1552571,7.30689505 51.7084984,6.62680213 51.7084984,5.82089796 L51.7084984,4.88799564 Z M60.8500391,8.30863749 C59.2152467,8.30863749 58.1550654,7.0873188 58.1550654,5.42922141 C58.1550654,3.70109701 59.2378037,2.46909623 60.9426417,2.46909623 C62.5560643,2.46909623 63.6388035,3.63225688 63.6388035,5.33783022 C63.6399898,7.0873188 62.5228223,8.30863749 60.8500391,8.30863749 Z M60.8963404,3.37826058 C59.9988073,3.37826058 59.423009,4.21858481 59.423009,5.39361445 C59.423009,6.54609302 60.0106794,7.38641726 60.8844683,7.38641726 C61.7606315,7.38641726 62.3471221,6.48793499 62.3471221,5.36987648 C62.3494892,4.23045379 61.7736909,3.37826058 60.8963404,3.37826058 Z M70.3299355,8.18163934 L69.084549,8.18163934 L69.084549,4.96751784 C69.084549,3.97764439 68.7046408,3.48152076 67.9555093,3.48152076 C67.21825,3.48152076 66.7124972,4.11532463 66.7124972,4.85238868 L66.7124972,8.18163934 L65.4671107,8.18163934 L65.4671107,4.18416475 C65.4671107,3.68922802 65.4552386,3.15868433 65.4208094,2.58303849 L66.5154199,2.58303849 L66.5735933,3.4471007 L66.6080225,3.4471007 C66.9416294,2.84890379 67.6219025,2.46790933 68.3817188,2.46790933 C69.5570598,2.46790933 70.3299355,3.36639159 70.3299355,4.8286507 L70.3299355,8.18163934 Z M78.7009749,3.51712772 L77.3321182,3.51712772 L77.3321182,6.23512558 C77.3321182,6.92708749 77.5719352,7.27247499 78.0563182,7.27247499 C78.2759526,7.27247499 78.4599706,7.24873701 78.6083722,7.21431695 L78.6428014,8.15908826 C78.4017972,8.25166636 78.0788752,8.2979554 77.6775972,8.2979554 C76.6969592,8.2979554 76.1104759,7.75672963 76.1104759,6.33957266 L76.1104759,3.51712772 L75.2936733,3.51712772 L75.2936733,2.58422539 L76.1104759,2.58422539 L76.1104759,1.55874498 L77.3321182,1.1896195 L77.3321182,2.58303849 L78.7009749,2.58303849 L78.7009749,3.51712772 L78.7009749,3.51712772 Z M85.287633,8.18163934 L84.0446209,8.18163934 L84.0446209,4.99125582 C84.0446209,3.98951337 83.6658999,3.48270766 82.9155813,3.48270766 C82.2709246,3.48270766 81.6701948,3.92067325 81.6701948,4.80728653 L81.6701948,8.18163934 L80.4271827,8.18163934 L80.4271827,0.0157767546 L81.6701948,0.0157767546 L81.6701948,3.37826058 L81.6951262,3.37826058 C82.0869065,2.76819468 82.6543944,2.46790933 83.3785944,2.46790933 C84.563433,2.46790933 85.287633,3.38894267 85.287633,4.85238868 L85.287633,8.18163934 L85.287633,8.18163934 Z M92.0357521,5.68203082 L88.301967,5.68203082 C88.3257112,6.7419313 89.0273542,7.34012821 90.0661656,7.34012821 C90.6182197,7.34012821 91.1263469,7.24755012 91.5751134,7.07544981 L91.7686292,7.93951202 C91.2391321,8.16977035 90.6158453,8.28489952 89.8904581,8.28489952 C88.1393188,8.28489952 87.1028818,7.17871 87.1028818,5.46364147 C87.1028818,3.74738605 88.1642503,2.45722724 89.7503669,2.45722724 C91.1809587,2.45722724 92.0784918,3.51712772 92.0784918,5.11825397 C92.0865371,5.30720708 92.0721908,5.49644824 92.0357521,5.68203082 L92.0357521,5.68203082 Z M90.8948403,4.79541754 C90.8948403,3.93135534 90.4591331,3.32128944 89.6637004,3.32128944 C88.9489981,3.32128944 88.3838847,3.94322433 88.3031542,4.79541754 L90.8948403,4.79541754 L90.8948403,4.79541754 Z" id="Shape"></path>
                            </g>
                        </g>
                    </g>
                </g>
            </g>
        </g>
    </g>
</svg>