<?xml version="1.0" encoding="UTF-8"?>
<svg width="48px" height="48px" viewBox="0 0 48 48" version="1.1" xmlns="http://www.w3.org/2000/svg" xmlns:xlink="http://www.w3.org/1999/xlink">
    <!-- Generator: sketchtool 61.2 (101010) - https://sketch.com -->
    <title>241511EF-144B-429C-B1BA-4CAD5BECFF2A</title>
    <desc>Created with sketchtool.</desc>
    <g id="Website" stroke="none" stroke-width="1" fill="none" fill-rule="evenodd">
        <g id="Desktop" transform="translate(-1180.000000, -5349.000000)" fill="#868E95" fill-rule="nonzero">
            <g id="Footer" transform="translate(0.000000, 5253.000000)">
                <g id="social" transform="translate(1180.000000, 96.000000)">
                    <path d="M33.8928269,0.145408163 C36.4476738,0.26147951 38.191934,0.667091918 39.7187197,1.25956637 C41.3201228,1.8622449 42.7710157,2.80739788 43.9699953,4.02869894 C45.1906586,5.22767853 46.1358116,6.67793371 46.7378524,8.27933682 C47.3316024,9.80612245 47.7372147,11.5503827 47.8539239,14.1052296 C47.9682015,16.6112218 47.9968751,17.4473202 47.9980202,23.5999888 L47.9980565,24 C47.9980565,30.5178571 47.970633,31.3354593 47.853286,33.8947704 C47.7372147,36.4496173 47.3309646,38.1938776 46.7378524,39.7206632 C45.4910411,42.9445153 42.9425717,45.4929847 39.7187197,46.7397959 C38.1925717,47.3329081 36.4476738,47.7385205 33.8934646,47.8552296 C31.3341535,47.9719388 30.5165513,48 23.9986942,48 C17.4801993,48 16.6632351,47.9719388 14.103286,47.8552296 C11.5490769,47.7385205 9.80417893,47.3329081 8.27803101,46.7397959 C6.67599019,46.1371174 5.22573501,45.1926021 4.02675542,43.9713011 C2.80609224,42.7729592 1.86157681,41.3220663 1.25889828,39.7206632 C0.665786113,38.1945153 0.25953599,36.4496173 0.143464643,33.8954082 C0.0458354154,31.7771171 0.0102145931,30.8518338 0.000829511024,26.9027118 L2.95782929e-13,21.4890445 C0.00796743787,17.206634 0.0425930855,16.2913079 0.142826929,14.1052296 C0.258898276,11.5503827 0.664510521,9.80612245 1.25762285,8.27933682 C1.86030138,6.67793371 2.80545436,5.22704082 4.02675542,4.02869894 C5.2250973,2.80739788 6.67599019,1.86288261 8.2773933,1.26020408 C9.80417893,0.667091918 11.5484392,0.26147951 14.103286,0.144770449 C16.2210494,0.048196605 17.1462416,0.0123212125 21.0953479,0.00281687677 L26.509012,0.00198025173 C30.7914225,0.0100833953 31.7067486,0.0451743197 33.8928269,0.145408163 Z M30.3885006,10.5 C26.6243781,10.5 23.5716644,13.5527137 23.5716644,17.3154768 C23.5716644,17.8501661 23.6319302,18.3703554 23.7488368,18.869701 C18.0838484,18.5846843 13.0604873,15.8722687 9.6991943,11.7479105 C9.11375477,12.7552109 8.7761755,13.9251838 8.7761755,15.1740005 C8.7761755,17.5388681 9.97922658,19.6264223 11.8094047,20.8475985 C10.6910883,20.8131608 9.640741,20.505941 8.72225341,19.9952673 C8.72134721,20.0238143 8.72134721,20.0514551 8.72134721,20.0822676 C8.72134721,23.3828417 11.0708085,26.1392105 14.1896786,26.763619 C13.6169266,26.9199476 13.0142683,27.003776 12.3921256,27.003776 C11.9539521,27.003776 11.5266537,26.9602759 11.1111367,26.8805256 C11.9793272,29.5888632 14.495086,31.5595107 17.4789244,31.6147921 C15.1457757,33.4431578 12.2067967,34.5324741 9.01316061,34.5324741 C8.4635181,34.5324741 7.92067253,34.5012084 7.38734258,34.4382238 C10.4038062,36.3717149 13.9857717,37.5 17.835082,37.5 L17.835082,37.5 L18.2332864,37.4964736 C30.5177334,37.2787219 37.2284463,27.0176157 37.2284463,18.1066357 C37.2284463,17.8116504 37.2221024,17.5180244 37.2089618,17.2257577 C38.5397945,16.26377 39.6966266,15.0629845 40.6087704,13.6959017 C39.3875944,14.2387473 38.0735273,14.6044205 36.6946631,14.7693585 C38.1020743,13.9251838 39.182328,12.5902729 39.6920954,10.9993454 C38.3748564,11.7800825 36.9166952,12.347397 35.3638304,12.6537106 C34.1199978,11.3287685 32.3491793,10.5 30.3885006,10.5 Z" id="icon.twitter"></path>
                </g>
            </g>
        </g>
    </g>
</svg>