<?xml version="1.0" encoding="UTF-8"?>
<svg width="49px" height="48px" viewBox="0 0 49 48" version="1.1" xmlns="http://www.w3.org/2000/svg" xmlns:xlink="http://www.w3.org/1999/xlink">
    <!-- Generator: sketchtool 61.2 (101010) - https://sketch.com -->
    <title>14C63FE7-5430-488A-A096-E0BF03EE969B</title>
    <desc>Created with sketchtool.</desc>
    <g id="Website" stroke="none" stroke-width="1" fill="none" fill-rule="evenodd">
        <g id="Desktop" transform="translate(-1339.000000, -5349.000000)" fill="#868E95" fill-rule="nonzero">
            <g id="Footer" transform="translate(0.000000, 5253.000000)">
                <g id="social" transform="translate(1180.000000, 96.000000)">
                    <path d="M193.888603,0.145408163 C196.44345,0.26147951 198.18771,0.667091918 199.714496,1.25956637 C201.315899,1.8622449 202.766792,2.80739788 203.965772,4.02869894 C205.186435,5.22767853 206.131588,6.67793371 206.733629,8.27933682 C207.327379,9.80612245 207.732991,11.5503827 207.8497,14.1052296 C207.963978,16.6112218 207.992651,17.4473202 207.993797,23.5999888 L207.993833,24 C207.993833,30.5178571 207.966409,31.3354593 207.849062,33.8947704 C207.732991,36.4496173 207.326741,38.1938776 206.733629,39.7206632 C205.486817,42.9445153 202.938348,45.4929847 199.714496,46.7397959 C198.188348,47.3329081 196.44345,47.7385205 193.889241,47.8552296 C191.32993,47.9719388 190.512328,48 183.994471,48 C177.475976,48 176.659011,47.9719388 174.099062,47.8552296 C171.544853,47.7385205 169.799955,47.3329081 168.273807,46.7397959 C166.671767,46.1371174 165.221511,45.1926021 164.022532,43.9713011 C162.801869,42.7729592 161.857353,41.3220663 161.254675,39.7206632 C160.661562,38.1945153 160.255312,36.4496173 160.139241,33.8954082 C160.041612,31.7771171 160.005991,30.8518338 159.996606,26.9027118 L159.995776,21.4890445 C160.003744,17.206634 160.038369,16.2913079 160.138603,14.1052296 C160.254675,11.5503827 160.660287,9.80612245 161.253399,8.27933682 C161.856078,6.67793371 162.801231,5.22704082 164.022532,4.02869894 C165.220874,2.80739788 166.671767,1.86288261 168.27317,1.26020408 C169.799955,0.667091918 171.544216,0.26147951 174.099062,0.144770449 C176.216826,0.048196605 177.142018,0.0123212125 181.091124,0.00281687678 L186.504788,0.00198025174 C190.787199,0.0100833953 191.702525,0.0451743197 193.888603,0.145408163 Z M183.993833,11.6760204 C177.187073,11.6760204 171.669216,17.1932398 171.669216,24 C171.669216,30.8067602 177.187073,36.3239796 183.993833,36.3239796 C190.799955,36.3239796 196.317812,30.8067602 196.317812,24 C196.317812,17.1932398 190.799955,11.6760204 183.993833,11.6760204 Z M183.993833,16 C188.4122,16 191.993833,19.5816327 191.993833,24 C191.993833,28.4183673 188.4122,32 183.993833,32 C179.575465,32 175.993833,28.4183673 175.993833,24 C175.993833,19.5816327 179.575465,16 183.993833,16 Z M196.805057,8.30867347 C195.214496,8.30867347 193.924955,9.5982142 193.924955,11.1887755 C193.924955,12.7793368 195.214496,14.0688776 196.805057,14.0688776 C198.395619,14.0688776 199.684522,12.7793368 199.685159,11.1887755 C199.685159,9.5982142 198.395619,8.30867347 196.805057,8.30867347 Z" id="icon.instagram"></path>
                </g>
            </g>
        </g>
    </g>
</svg>