<?xml version="1.0" encoding="UTF-8"?>
<svg width="48px" height="48px" viewBox="0 0 48 48" version="1.1" xmlns="http://www.w3.org/2000/svg" xmlns:xlink="http://www.w3.org/1999/xlink">
    <!-- Generator: sketchtool 61.2 (101010) - https://sketch.com -->
    <title>AE7442AF-18D9-4972-A2E9-7490A90C233D</title>
    <desc>Created with sketchtool.</desc>
    <g id="Website" stroke="none" stroke-width="1" fill="none" fill-rule="evenodd">
        <g id="Desktop" transform="translate(-1260.000000, -5349.000000)" fill="#868E95" fill-rule="nonzero">
            <g id="Footer" transform="translate(0.000000, 5253.000000)">
                <g id="social" transform="translate(1180.000000, 96.000000)">
                    <path d="M113.890547,0.145408163 C116.445394,0.26147951 118.189654,0.667091918 119.71644,1.25956637 C121.317843,1.8622449 122.768736,2.80739788 123.967715,4.02869894 C125.188378,5.22767853 126.133531,6.67793371 126.735572,8.27933682 C127.329322,9.80612245 127.734935,11.5503827 127.851644,14.1052296 C127.965921,16.6112218 127.994595,17.4473202 127.99574,23.5999888 L127.995776,24 C127.995776,30.5178571 127.968353,31.3354593 127.851006,33.8947704 C127.734935,36.4496173 127.328684,38.1938776 126.735572,39.7206632 C125.488761,42.9445153 122.940292,45.4929847 119.71644,46.7397959 C118.190292,47.3329081 116.445394,47.7385205 113.891184,47.8552296 C113.179611,47.8876786 112.602676,47.9132749 112.000432,47.9333207 L111.999844,31.6015708 L117.528102,31.6015708 L118.356306,25.1829938 L111.999844,25.1829938 L111.999844,21.0950331 C111.999844,19.2409572 112.514559,17.9776234 115.173222,17.9776234 L115.173222,17.9776234 L118.542651,17.9776234 L118.542651,12.2523433 C117.956439,12.1743757 115.945133,12 113.604812,12 C108.718411,12 105.374216,14.9815326 105.374216,20.4593222 L105.374216,20.4593222 L105.374216,25.1829938 L99.8666626,25.1829938 L99.8666626,31.6015708 L105.374216,31.6015708 L105.398165,47.999478 C104.962175,47.9998351 104.496042,48 103.996414,48 C97.4779192,48 96.6609549,47.9719388 94.1010059,47.8552296 C91.5467967,47.7385205 89.8018988,47.3329081 88.2757509,46.7397959 C86.67371,46.1371174 85.2234549,45.1926021 84.0244753,43.9713011 C82.8038121,42.7729592 81.8592967,41.3220663 81.2566181,39.7206632 C80.663506,38.1945153 80.2572558,36.4496173 80.1411845,33.8954082 C80.0435553,31.7771171 80.0079344,30.8518338 79.9985494,26.9027118 L79.9977199,21.4890445 C80.0056873,17.206634 80.0403129,16.2913079 80.1405468,14.1052296 C80.2566181,11.5503827 80.6622304,9.80612245 81.2553427,8.27933682 C81.8580212,6.67793371 82.8031742,5.22704082 84.0244753,4.02869894 C85.2228171,2.80739788 86.67371,1.86288261 88.2751131,1.26020408 C89.8018988,0.667091918 91.546159,0.26147951 94.1010059,0.144770449 C96.2187692,0.048196605 97.1439615,0.0123212125 101.093068,0.00281687675 L106.506732,0.00198025171 C110.789142,0.0100833953 111.704468,0.0451743197 113.890547,0.145408163 Z" id="icon.fb"></path>
                </g>
            </g>
        </g>
    </g>
</svg>