<?xml version="1.0" encoding="UTF-8"?>
<svg width="576px" height="609px" viewBox="0 0 576 609" version="1.1" xmlns="http://www.w3.org/2000/svg" xmlns:xlink="http://www.w3.org/1999/xlink">
    <!-- Generator: sketchtool 61.2 (101010) - https://sketch.com -->
    <title>CF47FB1C-687B-4BAB-84F1-EEAC915E9309</title>
    <desc>Created with sketchtool.</desc>
    <g id="Website" stroke="none" stroke-width="1" fill="none" fill-rule="evenodd">
        <g id="Desktop" transform="translate(-202.000000, -307.000000)">
            <g id="Hero" transform="translate(202.000000, 251.000000)">
                <g id="image.copy" transform="translate(0.000000, 56.000000)">
                    <g id="5" transform="translate(10.000000, 497.000000)" fill="#32D7F0">
                        <path d="M463.441618,1.53493976 C493.552452,1.53493976 507.047722,18.6855422 507.047722,35.3662651 L507.047722,35.3662651 L477.404932,35.3662651 C477.248918,30.9024096 472.958514,25.2638554 463.519625,25.2638554 C455.17284,25.2638554 451.662509,29.1012048 451.662509,33.6433735 C451.662509,38.2638554 456.889001,40.613253 465.547816,41.9445783 L465.547816,41.9445783 L479.199101,44.0590361 C493.942489,46.2518072 509.231928,53.8481928 509.231928,75.9325301 C509.231928,96.7638554 494.332525,111.956627 463.129589,111.956627 C428.1823,111.956627 417.573301,93.8662651 417.495294,77.4204819 L417.495294,77.4204819 L448.230186,77.4204819 C448.386201,82.4325301 453.612693,87.8361446 463.831655,87.8361446 C473.816595,87.8361446 477.248918,83.8421687 477.248918,79.4566265 C477.248918,73.9746988 471.944418,72.0951807 462.349515,70.3722892 L462.349515,70.3722892 L449.478304,68.1012048 C431.926652,64.9686747 419.211455,56.1192771 419.211455,36.3060241 C419.211455,14.2216867 436.919122,1.53493976 463.441618,1.53493976 Z M34.2452231,0 L57.0233669,47.6927711 L58.1154697,47.6927711 L80.9716209,0 L114.904815,0 L114.904815,106.89759 L85.4960467,106.89759 L85.4960467,47.3012048 L84.0139072,47.3012048 L65.9162039,86.6144578 L48.7545887,86.6144578 L30.5008707,47.3012048 L28.9407238,47.3012048 L28.9407238,106.89759 L0,106.89759 L0,0 L34.2452231,0 Z M208.747647,0 L208.747647,25.2951807 L165.21955,25.2951807 L165.21955,42.1325301 L205.861375,42.1325301 L205.861375,65 L165.21955,65 L165.21955,81.6024096 L208.747647,81.6024096 L208.747647,106.89759 L132.846503,106.89759 L132.846503,0 L208.747647,0 Z M248.921428,0 L285.194842,51.686747 L286.442959,51.686747 L286.442959,0 L316.475786,0 L316.475786,106.89759 L292.137495,106.89759 L255.630059,54.2710843 L254.381942,54.2710843 L254.381942,106.89759 L224.349115,106.89759 L224.349115,0 L248.921428,0 Z M412.892861,0 L412.892861,26.313253 L385.824313,26.313253 L385.824313,106.89759 L353.061229,106.89759 L353.061229,26.313253 L325.992682,26.313253 L325.992682,0 L412.892861,0 Z" id="MENTS"></path>
                    </g>
                    <g id="4" transform="translate(12.000000, 372.000000)" fill="#32D7F0">
                        <path d="M376.244888,0 C400.062799,0 416.071558,13.1566265 416.305832,32.0301205 L416.305832,32.0301205 L395.221125,32.0301205 C394.674484,24.5120482 388.505255,17.5421687 376.166797,17.5421687 C365.233986,17.5421687 358.440025,22.7108434 358.440025,30.9337349 C358.440025,37.1204819 363.437881,41.2710843 372.965045,43.2289157 L372.965045,43.2289157 L389.129987,46.8313253 C404.748289,50.1987952 417.945754,57.7951807 417.945754,77.2168675 C417.945754,98.2048193 401.624629,111.126506 375.229699,111.126506 C343.836912,111.126506 333.685016,93.5060241 333.37265,78.3915663 L333.37265,78.3915663 L355.08209,78.3915663 C355.706822,86.3012048 362.813149,93.3493976 376.32298,93.3493976 C388.895713,93.3493976 395.611583,87.7108434 395.611583,79.4096386 C395.611583,72.126506 390.145177,68.6024096 379.368549,66.1746988 L379.368549,66.1746988 L363.35979,62.4939759 C348.36622,59.2831325 335.871579,50.8253012 335.871579,32.6566265 C335.871579,11.6686747 353.676442,0 376.244888,0 Z M22.6465375,2.19277108 L22.6465375,109.090361 L0,109.090361 L0,2.19277108 L22.6465375,2.19277108 Z M63.1760305,2.19277108 L109.015746,70.7951807 L109.796661,70.7951807 L109.796661,2.19277108 L130.803277,2.19277108 L130.803277,109.090361 L112.373681,109.090361 L66.4558738,40.0180723 L65.6749587,40.0180723 L65.6749587,109.090361 L44.6683429,109.090361 L44.6683429,2.19277108 L63.1760305,2.19277108 Z M168.521476,2.19277108 L191.324196,83.9518072 L192.261294,83.9518072 L214.751649,2.19277108 L239.819023,2.19277108 L204.99021,109.090361 L177.423908,109.090361 L142.36082,2.19277108 L168.521476,2.19277108 Z M320.878009,2.19277108 L320.878009,20.5180723 L273.710738,20.5180723 L273.710738,46.5180723 L318.066715,46.5180723 L318.066715,63.5903614 L273.710738,63.5903614 L273.710738,90.7650602 L320.878009,90.7650602 L320.878009,109.090361 L251.298475,109.090361 L251.298475,2.19277108 L320.878009,2.19277108 Z M507.28244,2.19277108 L507.28244,20.9879518 L477.373392,20.9879518 L477.373392,109.090361 L454.804946,109.090361 L454.804946,20.9879518 L424.895898,20.9879518 L424.895898,2.19277108 L507.28244,2.19277108 Z M563.742601,55.4457831 L563.742601,75.0240964 L514.54495,75.0240964 L514.54495,55.4457831 L563.742601,55.4457831 Z" id="INVEST-"></path>
                    </g>
                    <g id="3" transform="translate(0.000000, 247.000000)" fill="#F7D707">
                        <path d="M136.953104,0 C163.398628,0 180.198495,17.8838729 180.531848,47.7246115 L180.536902,48.6325301 L180.536902,63.6686747 C180.536902,93.8975904 163.431433,111.283133 136.640675,111.283133 C110.195151,111.283133 93.3952841,94.2435627 93.0619313,64.5716846 L93.056877,63.6686747 L93.056877,48.6325301 C93.056877,18.246988 110.240453,0 136.953104,0 Z M213.607476,2.19277108 L213.607476,71.186747 C213.607476,87.2409639 223.605193,97.1084337 238.914198,97.1084337 C254.223202,97.1084337 264.299027,87.1626506 264.299027,71.186747 L264.299027,71.186747 L264.299027,2.19277108 L280.232888,2.19277108 L280.232888,73.3795181 C280.232888,95.6204819 264.76767,111.283133 238.914198,111.283133 C213.138833,111.283133 197.673614,95.6204819 197.673614,73.3795181 L197.673614,73.3795181 L197.673614,2.19277108 L213.607476,2.19277108 Z M18.1208624,2.19277108 L43.5056912,48.9457831 L44.0524413,48.9457831 L69.5153773,2.19277108 L87.323811,2.19277108 L51.6288364,64.6084337 L51.6288364,109.090361 L35.6949746,109.090361 L35.6949746,64.8433735 L0,2.19277108 L18.1208624,2.19277108 Z M341.500149,2.19277108 C365.71337,2.19277108 376.804588,17.2289157 376.804588,34.6927711 C376.804588,52.0595181 366.240297,61.0599898 357.389258,64.4297279 L357.121582,64.5301205 L378.757267,109.090361 L360.558297,109.090361 L341.18772,67.4277108 L317.599356,67.4277108 L317.599356,109.090361 L301.665495,109.090361 L301.665495,2.19277108 L341.500149,2.19277108 Z M136.79689,14.0180723 C121.331671,14.0180723 109.540988,25.4545404 109.306721,47.7955656 L109.303167,48.4759036 L109.303167,63.6686747 C109.303167,86.5361446 121.175457,97.2650602 136.79689,97.2650602 C152.339435,97.2650602 164.054338,86.74965 164.287082,64.3510586 L164.290612,63.6686747 L164.290612,48.4759036 C164.290612,25.686747 152.49643,14.0180723 136.79689,14.0180723 Z M339.313148,15.7409639 L317.599356,15.7409639 L317.599356,54.1927711 L338.844505,54.1927711 C352.747581,54.1927711 360.167762,47.4578313 360.167762,35.3975904 C360.167762,22.3975904 351.810295,15.7409639 339.313148,15.7409639 Z" id="YOUR"></path>
                    </g>
                    <g id="2" transform="translate(3.000000, 124.000000)" fill="#4A5157" fill-rule="nonzero">
                        <path d="M128.742217,0 C154.041305,0 169.919384,17.7303633 170.234416,46.6561844 L170.239192,47.5361446 L170.239192,64.7650602 C170.239192,94.1325301 154.062405,111.439759 128.507771,111.439759 C103.208682,111.439759 87.3306033,94.476944 87.0155717,65.642461 L87.0107953,64.7650602 L87.0107953,47.4578313 C87.0107953,18.0120482 103.187582,0 128.742217,0 Z M350.637719,0 C375.936807,0 391.814886,17.7303633 392.129918,46.6561844 L392.134694,47.5361446 L392.134694,64.7650602 C392.134694,94.1325301 375.957907,111.439759 350.403273,111.439759 C325.104185,111.439759 309.226106,94.476944 308.911074,65.642461 L308.906297,64.7650602 L308.906297,47.4578313 C308.906297,18.0120482 325.083084,0 350.637719,0 Z M76.8983497,2.34939759 L76.8983497,11.4337349 L43.3725448,11.4337349 L43.3725448,109.090361 L33.5258049,109.090361 L33.5258049,11.4337349 L0,11.4337349 L0,2.34939759 L76.8983497,2.34939759 Z M228.17866,2.34939759 C248.575478,2.34939759 261.548167,15.1144578 261.548167,34.6144578 C261.548167,54.0745181 248.833635,66.6266446 228.788332,66.8757411 L228.17866,66.8795181 L201.529943,66.8795181 L201.529943,109.090361 L191.605055,109.090361 L191.605055,2.34939759 L228.17866,2.34939759 Z M474.691012,2.34939759 L474.691012,11.5120482 L423.425445,11.5120482 L423.425445,51.686747 L470.470981,51.686747 L470.470981,60.7710843 L423.425445,60.7710843 L423.425445,109.090361 L413.500557,109.090361 L413.500557,2.34939759 L474.691012,2.34939759 Z M128.585919,9.08433735 C110.249883,9.08433735 97.1988029,22.6699404 96.9396149,46.5736937 L96.9356839,47.3012048 L96.9356839,64.9216867 C96.9356839,89.2771084 109.986522,102.355422 128.585919,102.355422 C147.07669,102.355422 160.052724,89.5373669 160.310396,65.6489645 L160.314303,64.9216867 L160.314303,47.3012048 C160.314303,22.9457831 147.185317,9.08433735 128.585919,9.08433735 Z M350.481421,9.08433735 C332.145385,9.08433735 319.094305,22.6699404 318.835117,46.5736937 L318.831186,47.3012048 L318.831186,64.9216867 C318.831186,89.2771084 331.882024,102.355422 350.481421,102.355422 C368.972192,102.355422 381.948226,89.5373669 382.205898,65.6489645 L382.209806,64.9216867 L382.209806,47.3012048 C382.209806,22.9457831 369.080819,9.08433735 350.481421,9.08433735 Z M227.787916,11.5120482 L201.529943,11.5120482 L201.529943,57.7951807 L221.848613,57.7951807 C240.526159,57.7951807 251.310684,52.313253 251.310684,34.6144578 C251.310684,19.9698795 242.714324,11.5120482 227.787916,11.5120482 Z" id="TOP-OF"></path>
                    </g>
                    <g id="1" transform="translate(8.000000, 0.000000)" fill="#4A5157" fill-rule="nonzero">
                        <path d="M399.707635,3.33800864 C425.136123,3.33800864 440.005219,21.3086718 440.300058,48.9627577 L440.304528,49.8037158 L440.304528,68.7661123 C440.304528,96.8179221 425.314906,114.761677 399.629564,114.761677 C374.201076,114.761677 359.408498,97.1750028 359.115189,69.6046264 L359.110743,68.7661123 L359.110743,49.6470018 C359.110743,21.5951921 374.022294,3.33800864 399.707635,3.33800864 Z M468.316384,5.76707597 L529.524006,101.049201 L529.83629,101.049201 L529.83629,5.76707597 L536.081966,5.76707597 L536.081966,112.33261 L529.524006,112.33261 L468.316384,17.0504855 L468.0041,17.0504855 L468.0041,112.33261 L461.680353,112.33261 L461.680353,5.76707597 L468.316384,5.76707597 Z M37.5521256,0 C58.2409266,0 70.88842,11.7535516 71.0445619,26.9548116 L71.0445619,26.9548116 L64.4866023,26.9548116 C64.1743186,17.1601853 56.4452948,5.87677578 37.4740546,5.87677578 C20.5326591,5.87677578 10.1492231,14.887832 10.1492231,28.5219518 C10.1492231,40.4322174 17.3317503,46.2306361 30.6818822,49.8350586 L30.6818822,49.8350586 L44.1100851,53.5178381 C62.4567577,58.5326868 72.9963356,64.9579616 72.9963356,81.8830759 C72.9963356,100.37533 57.616359,111.502026 36.2249195,111.502026 C9.29044271,111.502026 0.0780709472,94.1067695 0,82.0397899 L0,82.0397899 L6.47988861,82.0397899 C6.87024335,91.8344162 14.755409,105.62525 36.927558,105.62525 C54.649663,105.62525 66.438376,95.9089808 66.438376,82.2748609 C66.438376,69.1108832 57.7725009,63.7826065 41.6898858,59.4729709 L41.6898858,59.4729709 L27.7932572,55.7118344 C13.1939901,51.7939839 3.51319262,43.9582828 3.51319262,28.6786658 C3.51319262,11.2834095 17.2536793,0 37.5521256,0 Z M159.295961,2.50742433 L159.295961,8.38420011 L124.788602,8.38420011 L124.788602,109.072959 L118.464855,109.072959 L118.464855,8.38420011 L83.8013547,8.38420011 L83.8013547,2.50742433 L159.295961,2.50742433 Z M204.623952,2.50742433 L242.644504,109.072959 L235.852331,109.072959 L223.282909,73.1854477 L179.016682,73.1854477 L166.52533,109.072959 L159.8893,109.072959 L197.909851,2.50742433 L204.623952,2.50742433 Z M251.87249,2.50742433 L284.03772,54.8499073 L284.428075,54.8499073 L316.671376,2.50742433 L324.010045,2.50742433 L287.394771,61.3535392 L287.394771,109.072959 L281.071024,109.072959 L281.071024,61.5102532 L244.377679,2.50742433 L251.87249,2.50742433 Z M399.707635,9.21478443 C378.839271,9.21478443 365.699158,24.8047187 365.438442,48.4576442 L365.434489,49.1768597 L365.434489,69.2362544 C365.434489,93.2918566 378.472338,108.963259 399.707635,108.963259 C420.73058,108.963259 433.642687,93.6037175 433.898827,69.9553999 L433.90271,69.2362544 L433.90271,49.1768597 C433.90271,25.1212575 420.70872,9.21478443 399.707635,9.21478443 Z M201.344973,10.4214824 L201.032689,10.4214824 L180.890385,67.700457 L221.409206,67.700457 L201.344973,10.4214824 Z" id="STAY-ON"></path>
                    </g>
                </g>
            </g>
        </g>
    </g>
</svg>