<?xml version="1.0" encoding="UTF-8"?>
<svg width="214px" height="56px" viewBox="0 0 214 56" version="1.1" xmlns="http://www.w3.org/2000/svg" xmlns:xlink="http://www.w3.org/1999/xlink">
    <!-- Generator: sketchtool 61.2 (101010) - https://sketch.com -->
    <title>EED2B7C8-9975-46A1-A749-1A832BDEB8E0</title>
    <desc>Created with sketchtool.</desc>
    <g id="Website" stroke="none" stroke-width="1" fill="none" fill-rule="evenodd">
        <g id="Desktop" transform="translate(-212.000000, -92.000000)">
            <g id="Header">
                <g id="Logo" transform="translate(92.000000, 80.000000)">
                    <g id="logo.MSF" transform="translate(120.000000, 12.000000)">
                        <path d="M47.7138705,28.7818561 L47.7131834,34.8211443 L47.7131834,34.8211443 L47.7124963,34.8385856 L47.7124963,49.1602343 C47.7124963,51.333021 49.2681287,52.6602951 52.7298231,52.6602951 C54.159026,52.6602951 55.2577257,52.4360746 56.0650879,52.027202 L56.0650879,52.027202 L56.0650879,55.7028905 C55.1044987,55.8944845 53.9989278,56 52.7298231,56 C46.0792197,56 43.9010595,53.1031826 43.9010595,49.8044343 L43.9010595,49.8044343 L43.9010595,34.1950797 C43.9010595,31.9327438 44.9262377,29.8613076 47.7138705,28.7818561 L47.7138705,28.7818561 Z M143.10224,28.7822726 L143.10224,49.1606508 C143.10224,51.3327433 144.657872,52.6607116 148.120254,52.6607116 C149.550831,52.6607116 150.650905,52.4351028 151.458954,52.0248418 L151.458954,52.0248418 L151.458954,55.7019187 C150.497678,55.8942068 149.390733,55.9997223 148.120254,55.9997223 C141.468276,55.9997223 139.290116,53.1029049 139.290116,49.8041567 L139.290116,49.8041567 L139.290116,34.1948021 C139.290116,31.9331603 140.314607,29.8617241 143.10224,28.7822726 L143.10224,28.7822726 Z M200.033576,28.7822726 L200.033576,49.1606508 C200.033576,51.3327433 201.589208,52.6607116 205.05159,52.6607116 C206.482167,52.6607116 207.582928,52.4351028 208.39029,52.0248418 L208.39029,52.0248418 L208.39029,55.7019187 C207.429014,55.8942068 206.322069,55.9997223 205.05159,55.9997223 C198.399612,55.9997223 196.221452,53.1029049 196.221452,49.8041567 L196.221452,49.8041567 L196.221452,34.1948021 C196.221452,31.9331603 197.245943,29.8617241 200.033576,28.7822726 L200.033576,28.7822726 Z M72.8773927,28.7130628 L72.8773927,34.7975595 C72.8773927,34.8114431 72.8760185,34.8246325 72.8760185,34.8385161 L72.8760185,49.1601649 C72.8760185,51.3329515 74.1987183,52.6602257 77.6988912,52.6602257 C81.1997512,52.6602257 82.5616167,51.3329515 82.5616167,49.1601649 L82.5616167,49.1601649 L82.5616167,47.26991 C82.5616167,46.7471917 82.7560708,46.5056167 83.3009544,46.5056167 L83.3009544,46.5056167 L85.5567588,46.5056167 C86.0617896,46.5056167 86.2569308,46.7471917 86.2569308,47.26991 L86.2569308,47.26991 L86.2569308,49.8043649 C86.2569308,53.1031132 84.3508688,55.9999306 77.6604127,55.9999306 C70.9699565,55.9999306 69.0638946,53.1031132 69.0638946,49.8043649 L69.0638946,49.8043649 L69.0638946,34.1950103 C69.0638946,31.881305 70.0093673,29.7703005 72.8773927,28.7130628 L72.8773927,28.7130628 Z M7.87394609,28.0269342 L7.87394609,31.3388719 C5.16945442,31.5603157 4.12366267,32.7626372 4.12366267,34.7181451 L4.12366267,34.7181451 L4.12366267,35.522701 C4.12366267,37.3733876 5.29038698,37.8961059 6.10668172,38.2182059 L6.10668172,38.2182059 L13.1867331,40.9942358 C15.5201817,41.9188849 17.4654093,43.4884283 17.4654093,46.4650765 L17.4654093,46.4650765 L17.4654093,49.8040872 C17.4654093,52.9549749 15.4329178,55.731699 9.59173805,55.9760508 L9.59173805,55.9760508 L9.59173805,52.6682782 C12.4652604,52.4690482 13.7309296,51.2611732 13.7309296,49.2813689 L13.7309296,49.2813689 L13.7309296,47.3904198 C13.7309296,45.3786832 11.9808431,44.6949149 10.4636893,44.0916716 L10.4636893,44.0916716 L3.89004297,41.4766916 C2.17843506,40.7929233 0.428348604,38.9824992 0.428348604,36.4883068 L0.428348604,36.4883068 L0.428348604,34.1947327 C0.428348604,31.0618937 2.26020195,28.2976648 7.87394609,28.0269342 L7.87394609,28.0269342 Z M3.03430772,46.6665972 C3.53933856,46.6665972 3.73447973,46.9074781 3.73447973,47.4711531 L3.73447973,47.4711531 L3.73447973,49.280883 C3.73447973,51.2697116 4.97816111,52.4803634 7.87367124,52.6712631 L7.87367124,52.6712631 L7.87367124,55.9748706 C2.05791477,55.7208004 1.01962883e-12,52.9482414 1.01962883e-12,49.8042955 L1.01962883e-12,49.8042955 L1.01962883e-12,47.4711531 C1.01962883e-12,46.9074781 0.233619707,46.6665972 0.739337661,46.6665972 L0.739337661,46.6665972 Z M110.117267,28.3211281 C110.622298,28.3211281 110.739108,28.6834906 110.46701,29.0861156 L110.46701,29.0861156 L101.443105,41.7979586 L111.516924,54.9131208 C111.789022,55.2754833 111.6729,55.6781083 111.167182,55.6781083 L111.167182,55.6781083 L108.094395,55.6781083 C107.550199,55.6781083 107.238248,55.3157458 106.96615,54.9131208 L106.96615,54.9131208 L98.9983435,44.5024879 L98.9983435,39.4814765 L106.344309,29.0861156 C106.655573,28.6834906 107.043794,28.3211281 107.550199,28.3211281 L107.550199,28.3211281 Z M167.134149,28.3211281 C167.640554,28.3211281 167.834321,28.5627031 167.834321,29.1263781 L167.834321,29.1263781 L167.834321,55.6781083 L164.644725,55.6781083 C164.216652,55.6781083 164.022197,55.3962708 164.022197,54.8728583 L164.022197,54.8728583 L164.022197,29.1263781 C164.022197,28.5627031 164.216652,28.3211281 164.761535,28.3211281 L164.761535,28.3211281 Z M177.792155,52.3384033 C178.297873,52.3384033 178.531493,52.4994533 178.531493,53.0631283 L178.531493,53.0631283 L178.531493,54.9131208 C178.531493,55.4767958 178.297873,55.6781083 177.792155,55.6781083 L177.792155,55.6781083 L169.552251,55.6781083 L169.552251,52.3384033 Z M187.154465,28.3214058 C187.699349,28.3214058 187.854637,28.5629808 187.854637,29.1259616 L187.854637,54.8731359 C187.854637,55.4368109 187.699349,55.6776917 187.154465,55.6776917 L184.781851,55.6776917 C184.276133,55.6776917 184.081679,55.4368109 184.081679,54.8731359 L184.081679,29.1259616 C184.081679,28.5629808 184.276133,28.3214058 184.781851,28.3214058 L187.154465,28.3214058 Z M96.5420384,28.3211976 C97.0862349,28.3211976 97.2806889,28.5627726 97.2806889,29.0861851 L97.2806889,29.0861851 L97.2806889,54.9131902 C97.2806889,55.4366027 97.0862349,55.6774835 96.5420384,55.6774835 L96.5420384,55.6774835 L94.1694241,55.6774835 C93.663019,55.6774835 93.468565,55.4366027 93.468565,54.9131902 L93.468565,54.9131902 L93.468565,29.0861851 C93.468565,28.5627726 93.663019,28.3211976 94.1694241,28.3211976 L94.1694241,28.3211976 Z M121.394297,28.3214752 L121.394984,39.8275258 L131.897564,39.8275258 C132.442447,39.8275258 132.636214,40.0281441 132.636214,40.5918191 L132.636214,40.5918191 L132.636214,42.4425057 C132.636214,42.965224 132.442447,43.2061048 131.897564,43.2061048 L131.897564,43.2061048 L121.394984,43.2061048 L121.394984,54.8732054 C121.394984,55.4361862 121.239695,55.6777612 120.694812,55.6777612 L120.694812,55.6777612 L118.322198,55.6777612 C117.81648,55.6777612 117.622026,55.4361862 117.622026,54.8732054 L117.622026,54.8732054 L117.622026,29.126031 C117.622026,28.5623561 117.81648,28.3214752 118.322198,28.3214752 L118.322198,28.3214752 L121.394297,28.3214752 Z M32.069733,28.3213364 L32.069733,31.6610413 L32.0683588,31.6610413 L32.0683588,54.8730665 C32.0683588,55.4367415 31.8739047,55.6776223 31.3681868,55.6776223 L31.3681868,55.6776223 L28.9564068,55.6776223 C28.4506889,55.6776223 28.2562348,55.4367415 28.2562348,54.8730665 L28.2562348,54.8730665 L28.2562348,31.6610413 L22.0330181,31.6610413 C21.4881345,31.6610413 21.2929933,31.4597288 21.2929933,30.8960538 L21.2929933,30.8960538 L21.2929933,29.0863239 C21.2929933,28.5226489 21.4881345,28.3213364 22.0330181,28.3213364 L22.0330181,28.3213364 L32.069733,28.3213364 Z M52.7301666,28 C59.4206228,28 61.598783,30.8961232 61.598783,34.1948715 L61.598783,34.1948715 L61.598783,49.8042261 C61.598783,52.0637853 60.5756661,54.133139 57.7832235,55.2139788 L57.7832235,55.2139788 L57.7832235,49.2523522 C57.7832235,49.221114 57.7866591,49.1919584 57.7866591,49.1600261 L57.7866591,49.1600261 L57.7866591,34.8390715 C57.7866591,32.6662849 56.2317138,31.3390107 52.7301666,31.3390107 C51.3208901,31.3390107 50.2324971,31.5618429 49.4313189,31.9693271 L49.4313189,31.9693271 L49.4313189,28.2922502 C50.3829757,28.103433 51.4768656,28 52.7301666,28 Z M148.119979,28 C154.809748,28 156.988595,30.8961232 156.988595,34.1948715 L156.988595,34.1948715 L156.988595,49.8042261 C156.988595,52.062397 155.966165,54.1303622 153.176471,55.2118963 L153.176471,55.2118963 L153.176471,34.8390715 C153.176471,32.6662849 151.620839,31.3390107 148.119979,31.3390107 C146.709328,31.3390107 145.620935,31.5618429 144.819757,31.9700213 L144.819757,31.9700213 L144.819757,28.2922502 C145.771414,28.103433 146.865991,28 148.119979,28 Z M205.051384,28 C211.741153,28 213.92,30.8961232 213.92,34.1948715 L213.92,34.1948715 L213.92,49.8042261 C213.92,52.062397 212.89757,54.1303622 210.107876,55.2118963 L210.107876,55.2118963 L210.107876,34.8390715 C210.107876,32.6662849 208.552244,31.3390107 205.051384,31.3390107 C203.640733,31.3390107 202.55234,31.5618429 201.751162,31.9700213 L201.751162,31.9700213 L201.751162,28.2922502 C202.702818,28.103433 203.797396,28 205.051384,28 Z M77.6602753,28 C84.3507314,28 86.2567934,30.8961232 86.2567934,34.1948715 L86.2567934,34.1948715 L86.2567934,36.1663456 C86.2567934,36.7293264 86.0623393,36.9709014 85.5566213,36.9709014 L85.5566213,36.9709014 L83.3008169,36.9709014 C82.7559333,36.9709014 82.5614793,36.7293264 82.5614793,36.1663456 L82.5614793,36.1663456 L82.5614793,34.8390715 C82.5614793,32.6662849 81.1996138,31.3390107 77.6994409,31.3390107 C76.3616245,31.3390107 75.3446917,31.5333814 74.5950473,31.8943556 L74.5950473,31.8943556 L74.5950473,28.2547644 C75.4848635,28.0923261 76.4962994,28 77.6602753,28 Z M9.5914632,28.0233245 C15.3020908,28.2621228 17.2315147,31.0409294 17.2315147,34.1945938 L17.2315147,34.1945938 L17.2315147,35.9654496 C17.2315147,36.4881679 17.0377478,36.7297429 16.5320299,36.7297429 L16.5320299,36.7297429 L14.2370598,36.7297429 C13.6921762,36.7297429 13.5362007,36.4881679 13.5362007,35.9654496 L13.5362007,35.9654496 L13.5362007,34.7180063 C13.5362007,32.7159882 12.4409365,31.5025598 9.5914632,31.3241553 L9.5914632,31.3241553 Z M132.597461,28.3213364 C133.103179,28.3213364 133.336799,28.5226489 133.336799,29.0863239 L133.336799,29.0863239 L133.336799,30.8960538 C133.336799,31.4597288 133.103179,31.6610413 132.597461,31.6610413 L132.597461,31.6610413 L123.111814,31.6610413 L123.111814,28.3213364 Z M38.2919878,28.3213364 C38.7970186,28.3213364 39.0306383,28.5226489 39.0306383,29.0863239 L39.0306383,29.0863239 L39.0306383,30.8960538 C39.0306383,31.4597288 38.7970186,31.6610413 38.2919878,31.6610413 L38.2919878,31.6610413 L33.7872501,31.6610413 L33.7872501,28.3213364 Z" id="Combined-Shape" fill="#FFFFFF"></path>
                        <path d="M1.05119643,0.000425845989 C1.21318183,0.000425845989 1.29383279,0.0564955678 1.34851141,0.197024744 L6.68719496,13.2726258 C6.92983133,13.8595835 7.11778907,14.5877802 7.11778907,14.5877802 C7.11778907,14.5877802 7.38776475,13.7758338 7.57708946,13.3003058 L12.8610944,0.168635012 C12.9150895,0.0288155786 12.996424,0.000425845989 13.1577259,0.000425845989 L13.9396301,0.000425845989 C14.1556107,0.000425845989 14.2362616,0.11256529 14.2362616,0.336844177 L14.2362616,18.7035817 C14.2362616,18.9278606 14.1556107,19.04 13.9396301,19.04 L13.1577259,19.04 C12.9417454,19.04 12.8344386,18.9278606 12.8344386,18.7035817 L12.8344386,3.22053126 L12.3484824,4.67692455 L7.9277161,15.7922146 C7.84569817,16.0157837 7.71105208,16.1279232 7.49575502,16.1279232 L6.74050661,16.1279232 C6.52520955,16.1279232 6.41721928,16.0157837 6.33588484,15.7922146 L1.7524497,4.48032565 C1.56380847,4.08854734 1.37516724,3.38803069 1.34851141,3.248921 L1.34851141,18.7035817 C1.34851141,18.9278606 1.26717697,19.04 1.05119643,19.04 L0.323970811,19.04 C0.10799027,19.04 -4.744057e-13,18.9278606 -4.744057e-13,18.7035817 L-4.744057e-13,0.336844177 C-4.744057e-13,0.11256529 0.10799027,0.000425845989 0.323970811,0.000425845989 L1.05119643,0.000425845989 Z M19.9013765,3.65376865e-14 C20.1440129,3.65376865e-14 20.1973245,0.112849187 20.3059983,0.336418331 L24.6734529,8.9597996 C24.808099,9.24085795 25.0240795,9.80013569 25.0514188,9.88459514 C25.0514188,9.85620541 25.2933717,9.29621793 25.4560406,8.9597996 L29.8774903,0.336418331 C29.9847971,0.140529176 30.0668151,3.65376865e-14 30.2814286,3.65376865e-14 L31.0640164,3.65376865e-14 C31.3066527,3.65376865e-14 31.4412988,0.0844594544 31.3066527,0.336418331 L25.7793279,11.1443895 L25.7793279,18.7038656 C25.7793279,18.9274347 25.6979935,19.0395742 25.4560406,19.0395742 L24.6467971,19.0395742 C24.4308165,19.0395742 24.3501656,18.9274347 24.3501656,18.7038656 L24.3501656,11.3118889 L18.7955015,0.336418331 C18.6881947,0.112849187 18.7955015,3.65376865e-14 19.0121655,3.65376865e-14 L19.9013765,3.65376865e-14 Z" id="Combined-Shape" fill="#868E95"></path>
                    </g>
                </g>
            </g>
        </g>
    </g>
</svg>