<?xml version="1.0" encoding="UTF-8"?>
<svg width="704px" height="982px" viewBox="0 0 704 982" version="1.1" xmlns="http://www.w3.org/2000/svg" xmlns:xlink="http://www.w3.org/1999/xlink">
    <!-- Generator: sketchtool 61.2 (101010) - https://sketch.com -->
    <title>57C41A54-5FF4-4618-958A-2CFCB671157B</title>
    <desc>Created with sketchtool.</desc>
    <defs>
        <linearGradient x1="55.6616211%" y1="23.4912109%" x2="33.5949707%" y2="100%" id="linearGradient-1">
            <stop stop-color="#070809" stop-opacity="0" offset="0%"></stop>
            <stop stop-color="#070809" stop-opacity="0.7" offset="100%"></stop>
        </linearGradient>
        <path d="M39.4782609,974.043478 C41.3982609,974.043478 42.9565217,975.598261 42.9565217,977.521739 C42.9565217,979.445217 41.3982609,981 39.4782609,981 C37.5582609,981 36,979.445217 36,977.521739 C36,975.598261 37.5582609,974.043478 39.4782609,974.043478 Z M74.2608696,974.043478 C76.1808696,974.043478 77.7391304,975.598261 77.7391304,977.521739 C77.7391304,979.445217 76.1808696,981 74.2608696,981 C72.3408696,981 70.7826087,979.445217 70.7826087,977.521739 C70.7826087,975.598261 72.3408696,974.043478 74.2608696,974.043478 Z M109.043478,974.043478 C110.963478,974.043478 112.521739,975.598261 112.521739,977.521739 C112.521739,979.445217 110.963478,981 109.043478,981 C107.123478,981 105.565217,979.445217 105.565217,977.521739 C105.565217,975.598261 107.123478,974.043478 109.043478,974.043478 Z M143.826087,974.043478 C145.746087,974.043478 147.304348,975.598261 147.304348,977.521739 C147.304348,979.445217 145.746087,981 143.826087,981 C141.906087,981 140.347826,979.445217 140.347826,977.521739 C140.347826,975.598261 141.906087,974.043478 143.826087,974.043478 Z M178.608696,974.043478 C180.528696,974.043478 182.086957,975.598261 182.086957,977.521739 C182.086957,979.445217 180.528696,981 178.608696,981 C176.688696,981 175.130435,979.445217 175.130435,977.521739 C175.130435,975.598261 176.688696,974.043478 178.608696,974.043478 Z M213.391304,974.043478 C215.311304,974.043478 216.869565,975.598261 216.869565,977.521739 C216.869565,979.445217 215.311304,981 213.391304,981 C211.471304,981 209.913043,979.445217 209.913043,977.521739 C209.913043,975.598261 211.471304,974.043478 213.391304,974.043478 Z M248.173913,974.043478 C250.093913,974.043478 251.652174,975.598261 251.652174,977.521739 C251.652174,979.445217 250.093913,981 248.173913,981 C246.253913,981 244.695652,979.445217 244.695652,977.521739 C244.695652,975.598261 246.253913,974.043478 248.173913,974.043478 Z M282.956522,974.043478 C284.876522,974.043478 286.434783,975.598261 286.434783,977.521739 C286.434783,979.445217 284.876522,981 282.956522,981 C281.036522,981 279.478261,979.445217 279.478261,977.521739 C279.478261,975.598261 281.036522,974.043478 282.956522,974.043478 Z M317.73913,974.043478 C319.662609,974.043478 321.217391,975.598261 321.217391,977.521739 C321.217391,979.445217 319.662609,981 317.73913,981 C315.815652,981 314.26087,979.445217 314.26087,977.521739 C314.26087,975.598261 315.815652,974.043478 317.73913,974.043478 Z M352.521739,974.043478 C354.445217,974.043478 356,975.598261 356,977.521739 C356,979.445217 354.445217,981 352.521739,981 C350.598261,981 349.043478,979.445217 349.043478,977.521739 C349.043478,975.598261 350.598261,974.043478 352.521739,974.043478 Z M39.4782609,939.26087 C41.3982609,939.26087 42.9565217,940.815652 42.9565217,942.73913 C42.9565217,944.662609 41.3982609,946.217391 39.4782609,946.217391 C37.5582609,946.217391 36,944.662609 36,942.73913 C36,940.815652 37.5582609,939.26087 39.4782609,939.26087 Z M74.2608696,939.26087 C76.1808696,939.26087 77.7391304,940.815652 77.7391304,942.73913 C77.7391304,944.662609 76.1808696,946.217391 74.2608696,946.217391 C72.3408696,946.217391 70.7826087,944.662609 70.7826087,942.73913 C70.7826087,940.815652 72.3408696,939.26087 74.2608696,939.26087 Z M109.043478,939.26087 C110.963478,939.26087 112.521739,940.815652 112.521739,942.73913 C112.521739,944.662609 110.963478,946.217391 109.043478,946.217391 C107.123478,946.217391 105.565217,944.662609 105.565217,942.73913 C105.565217,940.815652 107.123478,939.26087 109.043478,939.26087 Z M143.826087,939.26087 C145.746087,939.26087 147.304348,940.815652 147.304348,942.73913 C147.304348,944.662609 145.746087,946.217391 143.826087,946.217391 C141.906087,946.217391 140.347826,944.662609 140.347826,942.73913 C140.347826,940.815652 141.906087,939.26087 143.826087,939.26087 Z M178.608696,939.26087 C180.528696,939.26087 182.086957,940.815652 182.086957,942.73913 C182.086957,944.662609 180.528696,946.217391 178.608696,946.217391 C176.688696,946.217391 175.130435,944.662609 175.130435,942.73913 C175.130435,940.815652 176.688696,939.26087 178.608696,939.26087 Z M213.391304,939.26087 C215.311304,939.26087 216.869565,940.815652 216.869565,942.73913 C216.869565,944.662609 215.311304,946.217391 213.391304,946.217391 C211.471304,946.217391 209.913043,944.662609 209.913043,942.73913 C209.913043,940.815652 211.471304,939.26087 213.391304,939.26087 Z M248.173913,939.26087 C250.093913,939.26087 251.652174,940.815652 251.652174,942.73913 C251.652174,944.662609 250.093913,946.217391 248.173913,946.217391 C246.253913,946.217391 244.695652,944.662609 244.695652,942.73913 C244.695652,940.815652 246.253913,939.26087 248.173913,939.26087 Z M282.956522,939.26087 C284.876522,939.26087 286.434783,940.815652 286.434783,942.73913 C286.434783,944.662609 284.876522,946.217391 282.956522,946.217391 C281.036522,946.217391 279.478261,944.662609 279.478261,942.73913 C279.478261,940.815652 281.036522,939.26087 282.956522,939.26087 Z M317.73913,939.26087 C319.662609,939.26087 321.217391,940.815652 321.217391,942.73913 C321.217391,944.662609 319.662609,946.217391 317.73913,946.217391 C315.815652,946.217391 314.26087,944.662609 314.26087,942.73913 C314.26087,940.815652 315.815652,939.26087 317.73913,939.26087 Z M352.521739,939.26087 C354.445217,939.26087 356,940.815652 356,942.73913 C356,944.662609 354.445217,946.217391 352.521739,946.217391 C350.598261,946.217391 349.043478,944.662609 349.043478,942.73913 C349.043478,940.815652 350.598261,939.26087 352.521739,939.26087 Z M39.4782609,904.478261 C41.3982609,904.478261 42.9565217,906.033043 42.9565217,907.956522 C42.9565217,909.88 41.3982609,911.434783 39.4782609,911.434783 C37.5582609,911.434783 36,909.88 36,907.956522 C36,906.033043 37.5582609,904.478261 39.4782609,904.478261 Z M74.2608696,904.478261 C76.1808696,904.478261 77.7391304,906.033043 77.7391304,907.956522 C77.7391304,909.88 76.1808696,911.434783 74.2608696,911.434783 C72.3408696,911.434783 70.7826087,909.88 70.7826087,907.956522 C70.7826087,906.033043 72.3408696,904.478261 74.2608696,904.478261 Z M109.043478,904.478261 C110.963478,904.478261 112.521739,906.033043 112.521739,907.956522 C112.521739,909.88 110.963478,911.434783 109.043478,911.434783 C107.123478,911.434783 105.565217,909.88 105.565217,907.956522 C105.565217,906.033043 107.123478,904.478261 109.043478,904.478261 Z M143.826087,904.478261 C145.746087,904.478261 147.304348,906.033043 147.304348,907.956522 C147.304348,909.88 145.746087,911.434783 143.826087,911.434783 C141.906087,911.434783 140.347826,909.88 140.347826,907.956522 C140.347826,906.033043 141.906087,904.478261 143.826087,904.478261 Z M178.608696,904.478261 C180.528696,904.478261 182.086957,906.033043 182.086957,907.956522 C182.086957,909.88 180.528696,911.434783 178.608696,911.434783 C176.688696,911.434783 175.130435,909.88 175.130435,907.956522 C175.130435,906.033043 176.688696,904.478261 178.608696,904.478261 Z M213.391304,904.478261 C215.311304,904.478261 216.869565,906.033043 216.869565,907.956522 C216.869565,909.88 215.311304,911.434783 213.391304,911.434783 C211.471304,911.434783 209.913043,909.88 209.913043,907.956522 C209.913043,906.033043 211.471304,904.478261 213.391304,904.478261 Z M248.173913,904.478261 C250.093913,904.478261 251.652174,906.033043 251.652174,907.956522 C251.652174,909.88 250.093913,911.434783 248.173913,911.434783 C246.253913,911.434783 244.695652,909.88 244.695652,907.956522 C244.695652,906.033043 246.253913,904.478261 248.173913,904.478261 Z M282.956522,904.478261 C284.876522,904.478261 286.434783,906.033043 286.434783,907.956522 C286.434783,909.88 284.876522,911.434783 282.956522,911.434783 C281.036522,911.434783 279.478261,909.88 279.478261,907.956522 C279.478261,906.033043 281.036522,904.478261 282.956522,904.478261 Z M317.73913,904.478261 C319.662609,904.478261 321.217391,906.033043 321.217391,907.956522 C321.217391,909.88 319.662609,911.434783 317.73913,911.434783 C315.815652,911.434783 314.26087,909.88 314.26087,907.956522 C314.26087,906.033043 315.815652,904.478261 317.73913,904.478261 Z M352.521739,904.478261 C354.445217,904.478261 356,906.033043 356,907.956522 C356,909.88 354.445217,911.434783 352.521739,911.434783 C350.598261,911.434783 349.043478,909.88 349.043478,907.956522 C349.043478,906.033043 350.598261,904.478261 352.521739,904.478261 Z M39.4782609,869.695652 C41.3982609,869.695652 42.9565217,871.250435 42.9565217,873.173913 C42.9565217,875.097391 41.3982609,876.652174 39.4782609,876.652174 C37.5582609,876.652174 36,875.097391 36,873.173913 C36,871.250435 37.5582609,869.695652 39.4782609,869.695652 Z M74.2608696,869.695652 C76.1808696,869.695652 77.7391304,871.250435 77.7391304,873.173913 C77.7391304,875.097391 76.1808696,876.652174 74.2608696,876.652174 C72.3408696,876.652174 70.7826087,875.097391 70.7826087,873.173913 C70.7826087,871.250435 72.3408696,869.695652 74.2608696,869.695652 Z M109.043478,869.695652 C110.963478,869.695652 112.521739,871.250435 112.521739,873.173913 C112.521739,875.097391 110.963478,876.652174 109.043478,876.652174 C107.123478,876.652174 105.565217,875.097391 105.565217,873.173913 C105.565217,871.250435 107.123478,869.695652 109.043478,869.695652 Z M143.826087,869.695652 C145.746087,869.695652 147.304348,871.250435 147.304348,873.173913 C147.304348,875.097391 145.746087,876.652174 143.826087,876.652174 C141.906087,876.652174 140.347826,875.097391 140.347826,873.173913 C140.347826,871.250435 141.906087,869.695652 143.826087,869.695652 Z M178.608696,869.695652 C180.528696,869.695652 182.086957,871.250435 182.086957,873.173913 C182.086957,875.097391 180.528696,876.652174 178.608696,876.652174 C176.688696,876.652174 175.130435,875.097391 175.130435,873.173913 C175.130435,871.250435 176.688696,869.695652 178.608696,869.695652 Z M213.391304,869.695652 C215.311304,869.695652 216.869565,871.250435 216.869565,873.173913 C216.869565,875.097391 215.311304,876.652174 213.391304,876.652174 C211.471304,876.652174 209.913043,875.097391 209.913043,873.173913 C209.913043,871.250435 211.471304,869.695652 213.391304,869.695652 Z M248.173913,869.695652 C250.093913,869.695652 251.652174,871.250435 251.652174,873.173913 C251.652174,875.097391 250.093913,876.652174 248.173913,876.652174 C246.253913,876.652174 244.695652,875.097391 244.695652,873.173913 C244.695652,871.250435 246.253913,869.695652 248.173913,869.695652 Z M282.956522,869.695652 C284.876522,869.695652 286.434783,871.250435 286.434783,873.173913 C286.434783,875.097391 284.876522,876.652174 282.956522,876.652174 C281.036522,876.652174 279.478261,875.097391 279.478261,873.173913 C279.478261,871.250435 281.036522,869.695652 282.956522,869.695652 Z M317.73913,869.695652 C319.662609,869.695652 321.217391,871.250435 321.217391,873.173913 C321.217391,875.097391 319.662609,876.652174 317.73913,876.652174 C315.815652,876.652174 314.26087,875.097391 314.26087,873.173913 C314.26087,871.250435 315.815652,869.695652 317.73913,869.695652 Z M352.521739,869.695652 C354.445217,869.695652 356,871.250435 356,873.173913 C356,875.097391 354.445217,876.652174 352.521739,876.652174 C350.598261,876.652174 349.043478,875.097391 349.043478,873.173913 C349.043478,871.250435 350.598261,869.695652 352.521739,869.695652 Z M39.4782609,834.913043 C41.3982609,834.913043 42.9565217,836.467826 42.9565217,838.391304 C42.9565217,840.314783 41.3982609,841.869565 39.4782609,841.869565 C37.5582609,841.869565 36,840.314783 36,838.391304 C36,836.467826 37.5582609,834.913043 39.4782609,834.913043 Z M74.2608696,834.913043 C76.1808696,834.913043 77.7391304,836.467826 77.7391304,838.391304 C77.7391304,840.314783 76.1808696,841.869565 74.2608696,841.869565 C72.3408696,841.869565 70.7826087,840.314783 70.7826087,838.391304 C70.7826087,836.467826 72.3408696,834.913043 74.2608696,834.913043 Z M109.043478,834.913043 C110.963478,834.913043 112.521739,836.467826 112.521739,838.391304 C112.521739,840.314783 110.963478,841.869565 109.043478,841.869565 C107.123478,841.869565 105.565217,840.314783 105.565217,838.391304 C105.565217,836.467826 107.123478,834.913043 109.043478,834.913043 Z M143.826087,834.913043 C145.746087,834.913043 147.304348,836.467826 147.304348,838.391304 C147.304348,840.314783 145.746087,841.869565 143.826087,841.869565 C141.906087,841.869565 140.347826,840.314783 140.347826,838.391304 C140.347826,836.467826 141.906087,834.913043 143.826087,834.913043 Z M178.608696,834.913043 C180.528696,834.913043 182.086957,836.467826 182.086957,838.391304 C182.086957,840.314783 180.528696,841.869565 178.608696,841.869565 C176.688696,841.869565 175.130435,840.314783 175.130435,838.391304 C175.130435,836.467826 176.688696,834.913043 178.608696,834.913043 Z M213.391304,834.913043 C215.311304,834.913043 216.869565,836.467826 216.869565,838.391304 C216.869565,840.314783 215.311304,841.869565 213.391304,841.869565 C211.471304,841.869565 209.913043,840.314783 209.913043,838.391304 C209.913043,836.467826 211.471304,834.913043 213.391304,834.913043 Z M248.173913,834.913043 C250.093913,834.913043 251.652174,836.467826 251.652174,838.391304 C251.652174,840.314783 250.093913,841.869565 248.173913,841.869565 C246.253913,841.869565 244.695652,840.314783 244.695652,838.391304 C244.695652,836.467826 246.253913,834.913043 248.173913,834.913043 Z M282.956522,834.913043 C284.876522,834.913043 286.434783,836.467826 286.434783,838.391304 C286.434783,840.314783 284.876522,841.869565 282.956522,841.869565 C281.036522,841.869565 279.478261,840.314783 279.478261,838.391304 C279.478261,836.467826 281.036522,834.913043 282.956522,834.913043 Z M317.73913,834.913043 C319.662609,834.913043 321.217391,836.467826 321.217391,838.391304 C321.217391,840.314783 319.662609,841.869565 317.73913,841.869565 C315.815652,841.869565 314.26087,840.314783 314.26087,838.391304 C314.26087,836.467826 315.815652,834.913043 317.73913,834.913043 Z M352.521739,834.913043 C354.445217,834.913043 356,836.467826 356,838.391304 C356,840.314783 354.445217,841.869565 352.521739,841.869565 C350.598261,841.869565 349.043478,840.314783 349.043478,838.391304 C349.043478,836.467826 350.598261,834.913043 352.521739,834.913043 Z M39.4782609,800.130435 C41.3982609,800.130435 42.9565217,801.685217 42.9565217,803.608696 C42.9565217,805.532174 41.3982609,807.086957 39.4782609,807.086957 C37.5582609,807.086957 36,805.532174 36,803.608696 C36,801.685217 37.5582609,800.130435 39.4782609,800.130435 Z M74.2608696,800.130435 C76.1808696,800.130435 77.7391304,801.685217 77.7391304,803.608696 C77.7391304,805.532174 76.1808696,807.086957 74.2608696,807.086957 C72.3408696,807.086957 70.7826087,805.532174 70.7826087,803.608696 C70.7826087,801.685217 72.3408696,800.130435 74.2608696,800.130435 Z M109.043478,800.130435 C110.963478,800.130435 112.521739,801.685217 112.521739,803.608696 C112.521739,805.532174 110.963478,807.086957 109.043478,807.086957 C107.123478,807.086957 105.565217,805.532174 105.565217,803.608696 C105.565217,801.685217 107.123478,800.130435 109.043478,800.130435 Z M143.826087,800.130435 C145.746087,800.130435 147.304348,801.685217 147.304348,803.608696 C147.304348,805.532174 145.746087,807.086957 143.826087,807.086957 C141.906087,807.086957 140.347826,805.532174 140.347826,803.608696 C140.347826,801.685217 141.906087,800.130435 143.826087,800.130435 Z M178.608696,800.130435 C180.528696,800.130435 182.086957,801.685217 182.086957,803.608696 C182.086957,805.532174 180.528696,807.086957 178.608696,807.086957 C176.688696,807.086957 175.130435,805.532174 175.130435,803.608696 C175.130435,801.685217 176.688696,800.130435 178.608696,800.130435 Z M213.391304,800.130435 C215.311304,800.130435 216.869565,801.685217 216.869565,803.608696 C216.869565,805.532174 215.311304,807.086957 213.391304,807.086957 C211.471304,807.086957 209.913043,805.532174 209.913043,803.608696 C209.913043,801.685217 211.471304,800.130435 213.391304,800.130435 Z M248.173913,800.130435 C250.093913,800.130435 251.652174,801.685217 251.652174,803.608696 C251.652174,805.532174 250.093913,807.086957 248.173913,807.086957 C246.253913,807.086957 244.695652,805.532174 244.695652,803.608696 C244.695652,801.685217 246.253913,800.130435 248.173913,800.130435 Z M282.956522,800.130435 C284.876522,800.130435 286.434783,801.685217 286.434783,803.608696 C286.434783,805.532174 284.876522,807.086957 282.956522,807.086957 C281.036522,807.086957 279.478261,805.532174 279.478261,803.608696 C279.478261,801.685217 281.036522,800.130435 282.956522,800.130435 Z M317.73913,800.130435 C319.662609,800.130435 321.217391,801.685217 321.217391,803.608696 C321.217391,805.532174 319.662609,807.086957 317.73913,807.086957 C315.815652,807.086957 314.26087,805.532174 314.26087,803.608696 C314.26087,801.685217 315.815652,800.130435 317.73913,800.130435 Z M352.521739,800.130435 C354.445217,800.130435 356,801.685217 356,803.608696 C356,805.532174 354.445217,807.086957 352.521739,807.086957 C350.598261,807.086957 349.043478,805.532174 349.043478,803.608696 C349.043478,801.685217 350.598261,800.130435 352.521739,800.130435 Z M39.4782609,765.347826 C41.3982609,765.347826 42.9565217,766.906087 42.9565217,768.826087 C42.9565217,770.746087 41.3982609,772.304348 39.4782609,772.304348 C37.5582609,772.304348 36,770.746087 36,768.826087 C36,766.906087 37.5582609,765.347826 39.4782609,765.347826 Z M74.2608696,765.347826 C76.1808696,765.347826 77.7391304,766.906087 77.7391304,768.826087 C77.7391304,770.746087 76.1808696,772.304348 74.2608696,772.304348 C72.3408696,772.304348 70.7826087,770.746087 70.7826087,768.826087 C70.7826087,766.906087 72.3408696,765.347826 74.2608696,765.347826 Z M109.043478,765.347826 C110.963478,765.347826 112.521739,766.906087 112.521739,768.826087 C112.521739,770.746087 110.963478,772.304348 109.043478,772.304348 C107.123478,772.304348 105.565217,770.746087 105.565217,768.826087 C105.565217,766.906087 107.123478,765.347826 109.043478,765.347826 Z M143.826087,765.347826 C145.746087,765.347826 147.304348,766.906087 147.304348,768.826087 C147.304348,770.746087 145.746087,772.304348 143.826087,772.304348 C141.906087,772.304348 140.347826,770.746087 140.347826,768.826087 C140.347826,766.906087 141.906087,765.347826 143.826087,765.347826 Z M178.608696,765.347826 C180.528696,765.347826 182.086957,766.906087 182.086957,768.826087 C182.086957,770.746087 180.528696,772.304348 178.608696,772.304348 C176.688696,772.304348 175.130435,770.746087 175.130435,768.826087 C175.130435,766.906087 176.688696,765.347826 178.608696,765.347826 Z M213.391304,765.347826 C215.311304,765.347826 216.869565,766.906087 216.869565,768.826087 C216.869565,770.746087 215.311304,772.304348 213.391304,772.304348 C211.471304,772.304348 209.913043,770.746087 209.913043,768.826087 C209.913043,766.906087 211.471304,765.347826 213.391304,765.347826 Z M248.173913,765.347826 C250.093913,765.347826 251.652174,766.906087 251.652174,768.826087 C251.652174,770.746087 250.093913,772.304348 248.173913,772.304348 C246.253913,772.304348 244.695652,770.746087 244.695652,768.826087 C244.695652,766.906087 246.253913,765.347826 248.173913,765.347826 Z M282.956522,765.347826 C284.876522,765.347826 286.434783,766.906087 286.434783,768.826087 C286.434783,770.746087 284.876522,772.304348 282.956522,772.304348 C281.036522,772.304348 279.478261,770.746087 279.478261,768.826087 C279.478261,766.906087 281.036522,765.347826 282.956522,765.347826 Z M317.73913,765.347826 C319.662609,765.347826 321.217391,766.906087 321.217391,768.826087 C321.217391,770.746087 319.662609,772.304348 317.73913,772.304348 C315.815652,772.304348 314.26087,770.746087 314.26087,768.826087 C314.26087,766.906087 315.815652,765.347826 317.73913,765.347826 Z M352.521739,765.347826 C354.445217,765.347826 356,766.906087 356,768.826087 C356,770.746087 354.445217,772.304348 352.521739,772.304348 C350.598261,772.304348 349.043478,770.746087 349.043478,768.826087 C349.043478,766.906087 350.598261,765.347826 352.521739,765.347826 Z M39.4782609,730.565217 C41.3982609,730.565217 42.9565217,732.123478 42.9565217,734.043478 C42.9565217,735.963478 41.3982609,737.521739 39.4782609,737.521739 C37.5582609,737.521739 36,735.963478 36,734.043478 C36,732.123478 37.5582609,730.565217 39.4782609,730.565217 Z M74.2608696,730.565217 C76.1808696,730.565217 77.7391304,732.123478 77.7391304,734.043478 C77.7391304,735.963478 76.1808696,737.521739 74.2608696,737.521739 C72.3408696,737.521739 70.7826087,735.963478 70.7826087,734.043478 C70.7826087,732.123478 72.3408696,730.565217 74.2608696,730.565217 Z M109.043478,730.565217 C110.963478,730.565217 112.521739,732.123478 112.521739,734.043478 C112.521739,735.963478 110.963478,737.521739 109.043478,737.521739 C107.123478,737.521739 105.565217,735.963478 105.565217,734.043478 C105.565217,732.123478 107.123478,730.565217 109.043478,730.565217 Z M143.826087,730.565217 C145.746087,730.565217 147.304348,732.123478 147.304348,734.043478 C147.304348,735.963478 145.746087,737.521739 143.826087,737.521739 C141.906087,737.521739 140.347826,735.963478 140.347826,734.043478 C140.347826,732.123478 141.906087,730.565217 143.826087,730.565217 Z M178.608696,730.565217 C180.528696,730.565217 182.086957,732.123478 182.086957,734.043478 C182.086957,735.963478 180.528696,737.521739 178.608696,737.521739 C176.688696,737.521739 175.130435,735.963478 175.130435,734.043478 C175.130435,732.123478 176.688696,730.565217 178.608696,730.565217 Z M213.391304,730.565217 C215.311304,730.565217 216.869565,732.123478 216.869565,734.043478 C216.869565,735.963478 215.311304,737.521739 213.391304,737.521739 C211.471304,737.521739 209.913043,735.963478 209.913043,734.043478 C209.913043,732.123478 211.471304,730.565217 213.391304,730.565217 Z M248.173913,730.565217 C250.093913,730.565217 251.652174,732.123478 251.652174,734.043478 C251.652174,735.963478 250.093913,737.521739 248.173913,737.521739 C246.253913,737.521739 244.695652,735.963478 244.695652,734.043478 C244.695652,732.123478 246.253913,730.565217 248.173913,730.565217 Z M282.956522,730.565217 C284.876522,730.565217 286.434783,732.123478 286.434783,734.043478 C286.434783,735.963478 284.876522,737.521739 282.956522,737.521739 C281.036522,737.521739 279.478261,735.963478 279.478261,734.043478 C279.478261,732.123478 281.036522,730.565217 282.956522,730.565217 Z M317.73913,730.565217 C319.662609,730.565217 321.217391,732.123478 321.217391,734.043478 C321.217391,735.963478 319.662609,737.521739 317.73913,737.521739 C315.815652,737.521739 314.26087,735.963478 314.26087,734.043478 C314.26087,732.123478 315.815652,730.565217 317.73913,730.565217 Z M352.521739,730.565217 C354.445217,730.565217 356,732.123478 356,734.043478 C356,735.963478 354.445217,737.521739 352.521739,737.521739 C350.598261,737.521739 349.043478,735.963478 349.043478,734.043478 C349.043478,732.123478 350.598261,730.565217 352.521739,730.565217 Z M39.4782609,695.782609 C41.3982609,695.782609 42.9565217,697.34087 42.9565217,699.26087 C42.9565217,701.18087 41.3982609,702.73913 39.4782609,702.73913 C37.5582609,702.73913 36,701.18087 36,699.26087 C36,697.34087 37.5582609,695.782609 39.4782609,695.782609 Z M74.2608696,695.782609 C76.1808696,695.782609 77.7391304,697.34087 77.7391304,699.26087 C77.7391304,701.18087 76.1808696,702.73913 74.2608696,702.73913 C72.3408696,702.73913 70.7826087,701.18087 70.7826087,699.26087 C70.7826087,697.34087 72.3408696,695.782609 74.2608696,695.782609 Z M109.043478,695.782609 C110.963478,695.782609 112.521739,697.34087 112.521739,699.26087 C112.521739,701.18087 110.963478,702.73913 109.043478,702.73913 C107.123478,702.73913 105.565217,701.18087 105.565217,699.26087 C105.565217,697.34087 107.123478,695.782609 109.043478,695.782609 Z M143.826087,695.782609 C145.746087,695.782609 147.304348,697.34087 147.304348,699.26087 C147.304348,701.18087 145.746087,702.73913 143.826087,702.73913 C141.906087,702.73913 140.347826,701.18087 140.347826,699.26087 C140.347826,697.34087 141.906087,695.782609 143.826087,695.782609 Z M178.608696,695.782609 C180.528696,695.782609 182.086957,697.34087 182.086957,699.26087 C182.086957,701.18087 180.528696,702.73913 178.608696,702.73913 C176.688696,702.73913 175.130435,701.18087 175.130435,699.26087 C175.130435,697.34087 176.688696,695.782609 178.608696,695.782609 Z M213.391304,695.782609 C215.311304,695.782609 216.869565,697.34087 216.869565,699.26087 C216.869565,701.18087 215.311304,702.73913 213.391304,702.73913 C211.471304,702.73913 209.913043,701.18087 209.913043,699.26087 C209.913043,697.34087 211.471304,695.782609 213.391304,695.782609 Z M248.173913,695.782609 C250.093913,695.782609 251.652174,697.34087 251.652174,699.26087 C251.652174,701.18087 250.093913,702.73913 248.173913,702.73913 C246.253913,702.73913 244.695652,701.18087 244.695652,699.26087 C244.695652,697.34087 246.253913,695.782609 248.173913,695.782609 Z M282.956522,695.782609 C284.876522,695.782609 286.434783,697.34087 286.434783,699.26087 C286.434783,701.18087 284.876522,702.73913 282.956522,702.73913 C281.036522,702.73913 279.478261,701.18087 279.478261,699.26087 C279.478261,697.34087 281.036522,695.782609 282.956522,695.782609 Z M317.73913,695.782609 C319.662609,695.782609 321.217391,697.34087 321.217391,699.26087 C321.217391,701.18087 319.662609,702.73913 317.73913,702.73913 C315.815652,702.73913 314.26087,701.18087 314.26087,699.26087 C314.26087,697.34087 315.815652,695.782609 317.73913,695.782609 Z M352.521739,695.782609 C354.445217,695.782609 356,697.34087 356,699.26087 C356,701.18087 354.445217,702.73913 352.521739,702.73913 C350.598261,702.73913 349.043478,701.18087 349.043478,699.26087 C349.043478,697.34087 350.598261,695.782609 352.521739,695.782609 Z M39.4782609,661 C41.3982609,661 42.9565217,662.558261 42.9565217,664.478261 C42.9565217,666.398261 41.3982609,667.956522 39.4782609,667.956522 C37.5582609,667.956522 36,666.398261 36,664.478261 C36,662.558261 37.5582609,661 39.4782609,661 Z M74.2608696,661 C76.1808696,661 77.7391304,662.558261 77.7391304,664.478261 C77.7391304,666.398261 76.1808696,667.956522 74.2608696,667.956522 C72.3408696,667.956522 70.7826087,666.398261 70.7826087,664.478261 C70.7826087,662.558261 72.3408696,661 74.2608696,661 Z M109.043478,661 C110.963478,661 112.521739,662.558261 112.521739,664.478261 C112.521739,666.398261 110.963478,667.956522 109.043478,667.956522 C107.123478,667.956522 105.565217,666.398261 105.565217,664.478261 C105.565217,662.558261 107.123478,661 109.043478,661 Z M143.826087,661 C145.746087,661 147.304348,662.558261 147.304348,664.478261 C147.304348,666.398261 145.746087,667.956522 143.826087,667.956522 C141.906087,667.956522 140.347826,666.398261 140.347826,664.478261 C140.347826,662.558261 141.906087,661 143.826087,661 Z M178.608696,661 C180.528696,661 182.086957,662.558261 182.086957,664.478261 C182.086957,666.398261 180.528696,667.956522 178.608696,667.956522 C176.688696,667.956522 175.130435,666.398261 175.130435,664.478261 C175.130435,662.558261 176.688696,661 178.608696,661 Z M213.391304,661 C215.311304,661 216.869565,662.558261 216.869565,664.478261 C216.869565,666.398261 215.311304,667.956522 213.391304,667.956522 C211.471304,667.956522 209.913043,666.398261 209.913043,664.478261 C209.913043,662.558261 211.471304,661 213.391304,661 Z M248.173913,661 C250.093913,661 251.652174,662.558261 251.652174,664.478261 C251.652174,666.398261 250.093913,667.956522 248.173913,667.956522 C246.253913,667.956522 244.695652,666.398261 244.695652,664.478261 C244.695652,662.558261 246.253913,661 248.173913,661 Z M282.956522,661 C284.876522,661 286.434783,662.558261 286.434783,664.478261 C286.434783,666.398261 284.876522,667.956522 282.956522,667.956522 C281.036522,667.956522 279.478261,666.398261 279.478261,664.478261 C279.478261,662.558261 281.036522,661 282.956522,661 Z M317.73913,661 C319.662609,661 321.217391,662.558261 321.217391,664.478261 C321.217391,666.398261 319.662609,667.956522 317.73913,667.956522 C315.815652,667.956522 314.26087,666.398261 314.26087,664.478261 C314.26087,662.558261 315.815652,661 317.73913,661 Z M352.521739,661 C354.445217,661 356,662.558261 356,664.478261 C356,666.398261 354.445217,667.956522 352.521739,667.956522 C350.598261,667.956522 349.043478,666.398261 349.043478,664.478261 C349.043478,662.558261 350.598261,661 352.521739,661 Z" id="path-2"></path>
        <linearGradient x1="50%" y1="54.9377441%" x2="-4.99145508%" y2="-2.99194336%" id="linearGradient-3">
            <stop stop-color="#070809" stop-opacity="0" offset="0%"></stop>
            <stop stop-color="#070809" stop-opacity="0.4" offset="100%"></stop>
        </linearGradient>
        <path d="M39.4782609,313.043478 C41.3982609,313.043478 42.9565217,314.598261 42.9565217,316.521739 C42.9565217,318.445217 41.3982609,320 39.4782609,320 C37.5582609,320 36,318.445217 36,316.521739 C36,314.598261 37.5582609,313.043478 39.4782609,313.043478 Z M74.2608696,313.043478 C76.1808696,313.043478 77.7391304,314.598261 77.7391304,316.521739 C77.7391304,318.445217 76.1808696,320 74.2608696,320 C72.3408696,320 70.7826087,318.445217 70.7826087,316.521739 C70.7826087,314.598261 72.3408696,313.043478 74.2608696,313.043478 Z M109.043478,313.043478 C110.963478,313.043478 112.521739,314.598261 112.521739,316.521739 C112.521739,318.445217 110.963478,320 109.043478,320 C107.123478,320 105.565217,318.445217 105.565217,316.521739 C105.565217,314.598261 107.123478,313.043478 109.043478,313.043478 Z M143.826087,313.043478 C145.746087,313.043478 147.304348,314.598261 147.304348,316.521739 C147.304348,318.445217 145.746087,320 143.826087,320 C141.906087,320 140.347826,318.445217 140.347826,316.521739 C140.347826,314.598261 141.906087,313.043478 143.826087,313.043478 Z M178.608696,313.043478 C180.528696,313.043478 182.086957,314.598261 182.086957,316.521739 C182.086957,318.445217 180.528696,320 178.608696,320 C176.688696,320 175.130435,318.445217 175.130435,316.521739 C175.130435,314.598261 176.688696,313.043478 178.608696,313.043478 Z M213.391304,313.043478 C215.311304,313.043478 216.869565,314.598261 216.869565,316.521739 C216.869565,318.445217 215.311304,320 213.391304,320 C211.471304,320 209.913043,318.445217 209.913043,316.521739 C209.913043,314.598261 211.471304,313.043478 213.391304,313.043478 Z M248.173913,313.043478 C250.093913,313.043478 251.652174,314.598261 251.652174,316.521739 C251.652174,318.445217 250.093913,320 248.173913,320 C246.253913,320 244.695652,318.445217 244.695652,316.521739 C244.695652,314.598261 246.253913,313.043478 248.173913,313.043478 Z M282.956522,313.043478 C284.876522,313.043478 286.434783,314.598261 286.434783,316.521739 C286.434783,318.445217 284.876522,320 282.956522,320 C281.036522,320 279.478261,318.445217 279.478261,316.521739 C279.478261,314.598261 281.036522,313.043478 282.956522,313.043478 Z M317.73913,313.043478 C319.662609,313.043478 321.217391,314.598261 321.217391,316.521739 C321.217391,318.445217 319.662609,320 317.73913,320 C315.815652,320 314.26087,318.445217 314.26087,316.521739 C314.26087,314.598261 315.815652,313.043478 317.73913,313.043478 Z M352.521739,313.043478 C354.445217,313.043478 356,314.598261 356,316.521739 C356,318.445217 354.445217,320 352.521739,320 C350.598261,320 349.043478,318.445217 349.043478,316.521739 C349.043478,314.598261 350.598261,313.043478 352.521739,313.043478 Z M39.4782609,278.26087 C41.3982609,278.26087 42.9565217,279.815652 42.9565217,281.73913 C42.9565217,283.662609 41.3982609,285.217391 39.4782609,285.217391 C37.5582609,285.217391 36,283.662609 36,281.73913 C36,279.815652 37.5582609,278.26087 39.4782609,278.26087 Z M74.2608696,278.26087 C76.1808696,278.26087 77.7391304,279.815652 77.7391304,281.73913 C77.7391304,283.662609 76.1808696,285.217391 74.2608696,285.217391 C72.3408696,285.217391 70.7826087,283.662609 70.7826087,281.73913 C70.7826087,279.815652 72.3408696,278.26087 74.2608696,278.26087 Z M109.043478,278.26087 C110.963478,278.26087 112.521739,279.815652 112.521739,281.73913 C112.521739,283.662609 110.963478,285.217391 109.043478,285.217391 C107.123478,285.217391 105.565217,283.662609 105.565217,281.73913 C105.565217,279.815652 107.123478,278.26087 109.043478,278.26087 Z M143.826087,278.26087 C145.746087,278.26087 147.304348,279.815652 147.304348,281.73913 C147.304348,283.662609 145.746087,285.217391 143.826087,285.217391 C141.906087,285.217391 140.347826,283.662609 140.347826,281.73913 C140.347826,279.815652 141.906087,278.26087 143.826087,278.26087 Z M178.608696,278.26087 C180.528696,278.26087 182.086957,279.815652 182.086957,281.73913 C182.086957,283.662609 180.528696,285.217391 178.608696,285.217391 C176.688696,285.217391 175.130435,283.662609 175.130435,281.73913 C175.130435,279.815652 176.688696,278.26087 178.608696,278.26087 Z M213.391304,278.26087 C215.311304,278.26087 216.869565,279.815652 216.869565,281.73913 C216.869565,283.662609 215.311304,285.217391 213.391304,285.217391 C211.471304,285.217391 209.913043,283.662609 209.913043,281.73913 C209.913043,279.815652 211.471304,278.26087 213.391304,278.26087 Z M248.173913,278.26087 C250.093913,278.26087 251.652174,279.815652 251.652174,281.73913 C251.652174,283.662609 250.093913,285.217391 248.173913,285.217391 C246.253913,285.217391 244.695652,283.662609 244.695652,281.73913 C244.695652,279.815652 246.253913,278.26087 248.173913,278.26087 Z M282.956522,278.26087 C284.876522,278.26087 286.434783,279.815652 286.434783,281.73913 C286.434783,283.662609 284.876522,285.217391 282.956522,285.217391 C281.036522,285.217391 279.478261,283.662609 279.478261,281.73913 C279.478261,279.815652 281.036522,278.26087 282.956522,278.26087 Z M317.73913,278.26087 C319.662609,278.26087 321.217391,279.815652 321.217391,281.73913 C321.217391,283.662609 319.662609,285.217391 317.73913,285.217391 C315.815652,285.217391 314.26087,283.662609 314.26087,281.73913 C314.26087,279.815652 315.815652,278.26087 317.73913,278.26087 Z M352.521739,278.26087 C354.445217,278.26087 356,279.815652 356,281.73913 C356,283.662609 354.445217,285.217391 352.521739,285.217391 C350.598261,285.217391 349.043478,283.662609 349.043478,281.73913 C349.043478,279.815652 350.598261,278.26087 352.521739,278.26087 Z M39.4782609,243.478261 C41.3982609,243.478261 42.9565217,245.033043 42.9565217,246.956522 C42.9565217,248.88 41.3982609,250.434783 39.4782609,250.434783 C37.5582609,250.434783 36,248.88 36,246.956522 C36,245.033043 37.5582609,243.478261 39.4782609,243.478261 Z M74.2608696,243.478261 C76.1808696,243.478261 77.7391304,245.033043 77.7391304,246.956522 C77.7391304,248.88 76.1808696,250.434783 74.2608696,250.434783 C72.3408696,250.434783 70.7826087,248.88 70.7826087,246.956522 C70.7826087,245.033043 72.3408696,243.478261 74.2608696,243.478261 Z M109.043478,243.478261 C110.963478,243.478261 112.521739,245.033043 112.521739,246.956522 C112.521739,248.88 110.963478,250.434783 109.043478,250.434783 C107.123478,250.434783 105.565217,248.88 105.565217,246.956522 C105.565217,245.033043 107.123478,243.478261 109.043478,243.478261 Z M143.826087,243.478261 C145.746087,243.478261 147.304348,245.033043 147.304348,246.956522 C147.304348,248.88 145.746087,250.434783 143.826087,250.434783 C141.906087,250.434783 140.347826,248.88 140.347826,246.956522 C140.347826,245.033043 141.906087,243.478261 143.826087,243.478261 Z M178.608696,243.478261 C180.528696,243.478261 182.086957,245.033043 182.086957,246.956522 C182.086957,248.88 180.528696,250.434783 178.608696,250.434783 C176.688696,250.434783 175.130435,248.88 175.130435,246.956522 C175.130435,245.033043 176.688696,243.478261 178.608696,243.478261 Z M213.391304,243.478261 C215.311304,243.478261 216.869565,245.033043 216.869565,246.956522 C216.869565,248.88 215.311304,250.434783 213.391304,250.434783 C211.471304,250.434783 209.913043,248.88 209.913043,246.956522 C209.913043,245.033043 211.471304,243.478261 213.391304,243.478261 Z M248.173913,243.478261 C250.093913,243.478261 251.652174,245.033043 251.652174,246.956522 C251.652174,248.88 250.093913,250.434783 248.173913,250.434783 C246.253913,250.434783 244.695652,248.88 244.695652,246.956522 C244.695652,245.033043 246.253913,243.478261 248.173913,243.478261 Z M282.956522,243.478261 C284.876522,243.478261 286.434783,245.033043 286.434783,246.956522 C286.434783,248.88 284.876522,250.434783 282.956522,250.434783 C281.036522,250.434783 279.478261,248.88 279.478261,246.956522 C279.478261,245.033043 281.036522,243.478261 282.956522,243.478261 Z M317.73913,243.478261 C319.662609,243.478261 321.217391,245.033043 321.217391,246.956522 C321.217391,248.88 319.662609,250.434783 317.73913,250.434783 C315.815652,250.434783 314.26087,248.88 314.26087,246.956522 C314.26087,245.033043 315.815652,243.478261 317.73913,243.478261 Z M352.521739,243.478261 C354.445217,243.478261 356,245.033043 356,246.956522 C356,248.88 354.445217,250.434783 352.521739,250.434783 C350.598261,250.434783 349.043478,248.88 349.043478,246.956522 C349.043478,245.033043 350.598261,243.478261 352.521739,243.478261 Z M39.4782609,208.695652 C41.3982609,208.695652 42.9565217,210.250435 42.9565217,212.173913 C42.9565217,214.097391 41.3982609,215.652174 39.4782609,215.652174 C37.5582609,215.652174 36,214.097391 36,212.173913 C36,210.250435 37.5582609,208.695652 39.4782609,208.695652 Z M74.2608696,208.695652 C76.1808696,208.695652 77.7391304,210.250435 77.7391304,212.173913 C77.7391304,214.097391 76.1808696,215.652174 74.2608696,215.652174 C72.3408696,215.652174 70.7826087,214.097391 70.7826087,212.173913 C70.7826087,210.250435 72.3408696,208.695652 74.2608696,208.695652 Z M109.043478,208.695652 C110.963478,208.695652 112.521739,210.250435 112.521739,212.173913 C112.521739,214.097391 110.963478,215.652174 109.043478,215.652174 C107.123478,215.652174 105.565217,214.097391 105.565217,212.173913 C105.565217,210.250435 107.123478,208.695652 109.043478,208.695652 Z M143.826087,208.695652 C145.746087,208.695652 147.304348,210.250435 147.304348,212.173913 C147.304348,214.097391 145.746087,215.652174 143.826087,215.652174 C141.906087,215.652174 140.347826,214.097391 140.347826,212.173913 C140.347826,210.250435 141.906087,208.695652 143.826087,208.695652 Z M178.608696,208.695652 C180.528696,208.695652 182.086957,210.250435 182.086957,212.173913 C182.086957,214.097391 180.528696,215.652174 178.608696,215.652174 C176.688696,215.652174 175.130435,214.097391 175.130435,212.173913 C175.130435,210.250435 176.688696,208.695652 178.608696,208.695652 Z M213.391304,208.695652 C215.311304,208.695652 216.869565,210.250435 216.869565,212.173913 C216.869565,214.097391 215.311304,215.652174 213.391304,215.652174 C211.471304,215.652174 209.913043,214.097391 209.913043,212.173913 C209.913043,210.250435 211.471304,208.695652 213.391304,208.695652 Z M248.173913,208.695652 C250.093913,208.695652 251.652174,210.250435 251.652174,212.173913 C251.652174,214.097391 250.093913,215.652174 248.173913,215.652174 C246.253913,215.652174 244.695652,214.097391 244.695652,212.173913 C244.695652,210.250435 246.253913,208.695652 248.173913,208.695652 Z M282.956522,208.695652 C284.876522,208.695652 286.434783,210.250435 286.434783,212.173913 C286.434783,214.097391 284.876522,215.652174 282.956522,215.652174 C281.036522,215.652174 279.478261,214.097391 279.478261,212.173913 C279.478261,210.250435 281.036522,208.695652 282.956522,208.695652 Z M317.73913,208.695652 C319.662609,208.695652 321.217391,210.250435 321.217391,212.173913 C321.217391,214.097391 319.662609,215.652174 317.73913,215.652174 C315.815652,215.652174 314.26087,214.097391 314.26087,212.173913 C314.26087,210.250435 315.815652,208.695652 317.73913,208.695652 Z M352.521739,208.695652 C354.445217,208.695652 356,210.250435 356,212.173913 C356,214.097391 354.445217,215.652174 352.521739,215.652174 C350.598261,215.652174 349.043478,214.097391 349.043478,212.173913 C349.043478,210.250435 350.598261,208.695652 352.521739,208.695652 Z M39.4782609,173.913043 C41.3982609,173.913043 42.9565217,175.467826 42.9565217,177.391304 C42.9565217,179.314783 41.3982609,180.869565 39.4782609,180.869565 C37.5582609,180.869565 36,179.314783 36,177.391304 C36,175.467826 37.5582609,173.913043 39.4782609,173.913043 Z M74.2608696,173.913043 C76.1808696,173.913043 77.7391304,175.467826 77.7391304,177.391304 C77.7391304,179.314783 76.1808696,180.869565 74.2608696,180.869565 C72.3408696,180.869565 70.7826087,179.314783 70.7826087,177.391304 C70.7826087,175.467826 72.3408696,173.913043 74.2608696,173.913043 Z M109.043478,173.913043 C110.963478,173.913043 112.521739,175.467826 112.521739,177.391304 C112.521739,179.314783 110.963478,180.869565 109.043478,180.869565 C107.123478,180.869565 105.565217,179.314783 105.565217,177.391304 C105.565217,175.467826 107.123478,173.913043 109.043478,173.913043 Z M143.826087,173.913043 C145.746087,173.913043 147.304348,175.467826 147.304348,177.391304 C147.304348,179.314783 145.746087,180.869565 143.826087,180.869565 C141.906087,180.869565 140.347826,179.314783 140.347826,177.391304 C140.347826,175.467826 141.906087,173.913043 143.826087,173.913043 Z M178.608696,173.913043 C180.528696,173.913043 182.086957,175.467826 182.086957,177.391304 C182.086957,179.314783 180.528696,180.869565 178.608696,180.869565 C176.688696,180.869565 175.130435,179.314783 175.130435,177.391304 C175.130435,175.467826 176.688696,173.913043 178.608696,173.913043 Z M213.391304,173.913043 C215.311304,173.913043 216.869565,175.467826 216.869565,177.391304 C216.869565,179.314783 215.311304,180.869565 213.391304,180.869565 C211.471304,180.869565 209.913043,179.314783 209.913043,177.391304 C209.913043,175.467826 211.471304,173.913043 213.391304,173.913043 Z M248.173913,173.913043 C250.093913,173.913043 251.652174,175.467826 251.652174,177.391304 C251.652174,179.314783 250.093913,180.869565 248.173913,180.869565 C246.253913,180.869565 244.695652,179.314783 244.695652,177.391304 C244.695652,175.467826 246.253913,173.913043 248.173913,173.913043 Z M282.956522,173.913043 C284.876522,173.913043 286.434783,175.467826 286.434783,177.391304 C286.434783,179.314783 284.876522,180.869565 282.956522,180.869565 C281.036522,180.869565 279.478261,179.314783 279.478261,177.391304 C279.478261,175.467826 281.036522,173.913043 282.956522,173.913043 Z M317.73913,173.913043 C319.662609,173.913043 321.217391,175.467826 321.217391,177.391304 C321.217391,179.314783 319.662609,180.869565 317.73913,180.869565 C315.815652,180.869565 314.26087,179.314783 314.26087,177.391304 C314.26087,175.467826 315.815652,173.913043 317.73913,173.913043 Z M352.521739,173.913043 C354.445217,173.913043 356,175.467826 356,177.391304 C356,179.314783 354.445217,180.869565 352.521739,180.869565 C350.598261,180.869565 349.043478,179.314783 349.043478,177.391304 C349.043478,175.467826 350.598261,173.913043 352.521739,173.913043 Z M39.4782609,139.130435 C41.3982609,139.130435 42.9565217,140.685217 42.9565217,142.608696 C42.9565217,144.532174 41.3982609,146.086957 39.4782609,146.086957 C37.5582609,146.086957 36,144.532174 36,142.608696 C36,140.685217 37.5582609,139.130435 39.4782609,139.130435 Z M74.2608696,139.130435 C76.1808696,139.130435 77.7391304,140.685217 77.7391304,142.608696 C77.7391304,144.532174 76.1808696,146.086957 74.2608696,146.086957 C72.3408696,146.086957 70.7826087,144.532174 70.7826087,142.608696 C70.7826087,140.685217 72.3408696,139.130435 74.2608696,139.130435 Z M109.043478,139.130435 C110.963478,139.130435 112.521739,140.685217 112.521739,142.608696 C112.521739,144.532174 110.963478,146.086957 109.043478,146.086957 C107.123478,146.086957 105.565217,144.532174 105.565217,142.608696 C105.565217,140.685217 107.123478,139.130435 109.043478,139.130435 Z M143.826087,139.130435 C145.746087,139.130435 147.304348,140.685217 147.304348,142.608696 C147.304348,144.532174 145.746087,146.086957 143.826087,146.086957 C141.906087,146.086957 140.347826,144.532174 140.347826,142.608696 C140.347826,140.685217 141.906087,139.130435 143.826087,139.130435 Z M178.608696,139.130435 C180.528696,139.130435 182.086957,140.685217 182.086957,142.608696 C182.086957,144.532174 180.528696,146.086957 178.608696,146.086957 C176.688696,146.086957 175.130435,144.532174 175.130435,142.608696 C175.130435,140.685217 176.688696,139.130435 178.608696,139.130435 Z M213.391304,139.130435 C215.311304,139.130435 216.869565,140.685217 216.869565,142.608696 C216.869565,144.532174 215.311304,146.086957 213.391304,146.086957 C211.471304,146.086957 209.913043,144.532174 209.913043,142.608696 C209.913043,140.685217 211.471304,139.130435 213.391304,139.130435 Z M248.173913,139.130435 C250.093913,139.130435 251.652174,140.685217 251.652174,142.608696 C251.652174,144.532174 250.093913,146.086957 248.173913,146.086957 C246.253913,146.086957 244.695652,144.532174 244.695652,142.608696 C244.695652,140.685217 246.253913,139.130435 248.173913,139.130435 Z M282.956522,139.130435 C284.876522,139.130435 286.434783,140.685217 286.434783,142.608696 C286.434783,144.532174 284.876522,146.086957 282.956522,146.086957 C281.036522,146.086957 279.478261,144.532174 279.478261,142.608696 C279.478261,140.685217 281.036522,139.130435 282.956522,139.130435 Z M317.73913,139.130435 C319.662609,139.130435 321.217391,140.685217 321.217391,142.608696 C321.217391,144.532174 319.662609,146.086957 317.73913,146.086957 C315.815652,146.086957 314.26087,144.532174 314.26087,142.608696 C314.26087,140.685217 315.815652,139.130435 317.73913,139.130435 Z M352.521739,139.130435 C354.445217,139.130435 356,140.685217 356,142.608696 C356,144.532174 354.445217,146.086957 352.521739,146.086957 C350.598261,146.086957 349.043478,144.532174 349.043478,142.608696 C349.043478,140.685217 350.598261,139.130435 352.521739,139.130435 Z M39.4782609,104.347826 C41.3982609,104.347826 42.9565217,105.906087 42.9565217,107.826087 C42.9565217,109.746087 41.3982609,111.304348 39.4782609,111.304348 C37.5582609,111.304348 36,109.746087 36,107.826087 C36,105.906087 37.5582609,104.347826 39.4782609,104.347826 Z M74.2608696,104.347826 C76.1808696,104.347826 77.7391304,105.906087 77.7391304,107.826087 C77.7391304,109.746087 76.1808696,111.304348 74.2608696,111.304348 C72.3408696,111.304348 70.7826087,109.746087 70.7826087,107.826087 C70.7826087,105.906087 72.3408696,104.347826 74.2608696,104.347826 Z M109.043478,104.347826 C110.963478,104.347826 112.521739,105.906087 112.521739,107.826087 C112.521739,109.746087 110.963478,111.304348 109.043478,111.304348 C107.123478,111.304348 105.565217,109.746087 105.565217,107.826087 C105.565217,105.906087 107.123478,104.347826 109.043478,104.347826 Z M143.826087,104.347826 C145.746087,104.347826 147.304348,105.906087 147.304348,107.826087 C147.304348,109.746087 145.746087,111.304348 143.826087,111.304348 C141.906087,111.304348 140.347826,109.746087 140.347826,107.826087 C140.347826,105.906087 141.906087,104.347826 143.826087,104.347826 Z M178.608696,104.347826 C180.528696,104.347826 182.086957,105.906087 182.086957,107.826087 C182.086957,109.746087 180.528696,111.304348 178.608696,111.304348 C176.688696,111.304348 175.130435,109.746087 175.130435,107.826087 C175.130435,105.906087 176.688696,104.347826 178.608696,104.347826 Z M213.391304,104.347826 C215.311304,104.347826 216.869565,105.906087 216.869565,107.826087 C216.869565,109.746087 215.311304,111.304348 213.391304,111.304348 C211.471304,111.304348 209.913043,109.746087 209.913043,107.826087 C209.913043,105.906087 211.471304,104.347826 213.391304,104.347826 Z M248.173913,104.347826 C250.093913,104.347826 251.652174,105.906087 251.652174,107.826087 C251.652174,109.746087 250.093913,111.304348 248.173913,111.304348 C246.253913,111.304348 244.695652,109.746087 244.695652,107.826087 C244.695652,105.906087 246.253913,104.347826 248.173913,104.347826 Z M282.956522,104.347826 C284.876522,104.347826 286.434783,105.906087 286.434783,107.826087 C286.434783,109.746087 284.876522,111.304348 282.956522,111.304348 C281.036522,111.304348 279.478261,109.746087 279.478261,107.826087 C279.478261,105.906087 281.036522,104.347826 282.956522,104.347826 Z M317.73913,104.347826 C319.662609,104.347826 321.217391,105.906087 321.217391,107.826087 C321.217391,109.746087 319.662609,111.304348 317.73913,111.304348 C315.815652,111.304348 314.26087,109.746087 314.26087,107.826087 C314.26087,105.906087 315.815652,104.347826 317.73913,104.347826 Z M352.521739,104.347826 C354.445217,104.347826 356,105.906087 356,107.826087 C356,109.746087 354.445217,111.304348 352.521739,111.304348 C350.598261,111.304348 349.043478,109.746087 349.043478,107.826087 C349.043478,105.906087 350.598261,104.347826 352.521739,104.347826 Z M39.4782609,69.5652174 C41.3982609,69.5652174 42.9565217,71.1234783 42.9565217,73.0434783 C42.9565217,74.9634783 41.3982609,76.5217391 39.4782609,76.5217391 C37.5582609,76.5217391 36,74.9634783 36,73.0434783 C36,71.1234783 37.5582609,69.5652174 39.4782609,69.5652174 Z M74.2608696,69.5652174 C76.1808696,69.5652174 77.7391304,71.1234783 77.7391304,73.0434783 C77.7391304,74.9634783 76.1808696,76.5217391 74.2608696,76.5217391 C72.3408696,76.5217391 70.7826087,74.9634783 70.7826087,73.0434783 C70.7826087,71.1234783 72.3408696,69.5652174 74.2608696,69.5652174 Z M109.043478,69.5652174 C110.963478,69.5652174 112.521739,71.1234783 112.521739,73.0434783 C112.521739,74.9634783 110.963478,76.5217391 109.043478,76.5217391 C107.123478,76.5217391 105.565217,74.9634783 105.565217,73.0434783 C105.565217,71.1234783 107.123478,69.5652174 109.043478,69.5652174 Z M143.826087,69.5652174 C145.746087,69.5652174 147.304348,71.1234783 147.304348,73.0434783 C147.304348,74.9634783 145.746087,76.5217391 143.826087,76.5217391 C141.906087,76.5217391 140.347826,74.9634783 140.347826,73.0434783 C140.347826,71.1234783 141.906087,69.5652174 143.826087,69.5652174 Z M178.608696,69.5652174 C180.528696,69.5652174 182.086957,71.1234783 182.086957,73.0434783 C182.086957,74.9634783 180.528696,76.5217391 178.608696,76.5217391 C176.688696,76.5217391 175.130435,74.9634783 175.130435,73.0434783 C175.130435,71.1234783 176.688696,69.5652174 178.608696,69.5652174 Z M213.391304,69.5652174 C215.311304,69.5652174 216.869565,71.1234783 216.869565,73.0434783 C216.869565,74.9634783 215.311304,76.5217391 213.391304,76.5217391 C211.471304,76.5217391 209.913043,74.9634783 209.913043,73.0434783 C209.913043,71.1234783 211.471304,69.5652174 213.391304,69.5652174 Z M248.173913,69.5652174 C250.093913,69.5652174 251.652174,71.1234783 251.652174,73.0434783 C251.652174,74.9634783 250.093913,76.5217391 248.173913,76.5217391 C246.253913,76.5217391 244.695652,74.9634783 244.695652,73.0434783 C244.695652,71.1234783 246.253913,69.5652174 248.173913,69.5652174 Z M282.956522,69.5652174 C284.876522,69.5652174 286.434783,71.1234783 286.434783,73.0434783 C286.434783,74.9634783 284.876522,76.5217391 282.956522,76.5217391 C281.036522,76.5217391 279.478261,74.9634783 279.478261,73.0434783 C279.478261,71.1234783 281.036522,69.5652174 282.956522,69.5652174 Z M317.73913,69.5652174 C319.662609,69.5652174 321.217391,71.1234783 321.217391,73.0434783 C321.217391,74.9634783 319.662609,76.5217391 317.73913,76.5217391 C315.815652,76.5217391 314.26087,74.9634783 314.26087,73.0434783 C314.26087,71.1234783 315.815652,69.5652174 317.73913,69.5652174 Z M352.521739,69.5652174 C354.445217,69.5652174 356,71.1234783 356,73.0434783 C356,74.9634783 354.445217,76.5217391 352.521739,76.5217391 C350.598261,76.5217391 349.043478,74.9634783 349.043478,73.0434783 C349.043478,71.1234783 350.598261,69.5652174 352.521739,69.5652174 Z M39.4782609,34.7826087 C41.3982609,34.7826087 42.9565217,36.3408696 42.9565217,38.2608696 C42.9565217,40.1808696 41.3982609,41.7391304 39.4782609,41.7391304 C37.5582609,41.7391304 36,40.1808696 36,38.2608696 C36,36.3408696 37.5582609,34.7826087 39.4782609,34.7826087 Z M74.2608696,34.7826087 C76.1808696,34.7826087 77.7391304,36.3408696 77.7391304,38.2608696 C77.7391304,40.1808696 76.1808696,41.7391304 74.2608696,41.7391304 C72.3408696,41.7391304 70.7826087,40.1808696 70.7826087,38.2608696 C70.7826087,36.3408696 72.3408696,34.7826087 74.2608696,34.7826087 Z M109.043478,34.7826087 C110.963478,34.7826087 112.521739,36.3408696 112.521739,38.2608696 C112.521739,40.1808696 110.963478,41.7391304 109.043478,41.7391304 C107.123478,41.7391304 105.565217,40.1808696 105.565217,38.2608696 C105.565217,36.3408696 107.123478,34.7826087 109.043478,34.7826087 Z M143.826087,34.7826087 C145.746087,34.7826087 147.304348,36.3408696 147.304348,38.2608696 C147.304348,40.1808696 145.746087,41.7391304 143.826087,41.7391304 C141.906087,41.7391304 140.347826,40.1808696 140.347826,38.2608696 C140.347826,36.3408696 141.906087,34.7826087 143.826087,34.7826087 Z M178.608696,34.7826087 C180.528696,34.7826087 182.086957,36.3408696 182.086957,38.2608696 C182.086957,40.1808696 180.528696,41.7391304 178.608696,41.7391304 C176.688696,41.7391304 175.130435,40.1808696 175.130435,38.2608696 C175.130435,36.3408696 176.688696,34.7826087 178.608696,34.7826087 Z M213.391304,34.7826087 C215.311304,34.7826087 216.869565,36.3408696 216.869565,38.2608696 C216.869565,40.1808696 215.311304,41.7391304 213.391304,41.7391304 C211.471304,41.7391304 209.913043,40.1808696 209.913043,38.2608696 C209.913043,36.3408696 211.471304,34.7826087 213.391304,34.7826087 Z M248.173913,34.7826087 C250.093913,34.7826087 251.652174,36.3408696 251.652174,38.2608696 C251.652174,40.1808696 250.093913,41.7391304 248.173913,41.7391304 C246.253913,41.7391304 244.695652,40.1808696 244.695652,38.2608696 C244.695652,36.3408696 246.253913,34.7826087 248.173913,34.7826087 Z M282.956522,34.7826087 C284.876522,34.7826087 286.434783,36.3408696 286.434783,38.2608696 C286.434783,40.1808696 284.876522,41.7391304 282.956522,41.7391304 C281.036522,41.7391304 279.478261,40.1808696 279.478261,38.2608696 C279.478261,36.3408696 281.036522,34.7826087 282.956522,34.7826087 Z M317.73913,34.7826087 C319.662609,34.7826087 321.217391,36.3408696 321.217391,38.2608696 C321.217391,40.1808696 319.662609,41.7391304 317.73913,41.7391304 C315.815652,41.7391304 314.26087,40.1808696 314.26087,38.2608696 C314.26087,36.3408696 315.815652,34.7826087 317.73913,34.7826087 Z M352.521739,34.7826087 C354.445217,34.7826087 356,36.3408696 356,38.2608696 C356,40.1808696 354.445217,41.7391304 352.521739,41.7391304 C350.598261,41.7391304 349.043478,40.1808696 349.043478,38.2608696 C349.043478,36.3408696 350.598261,34.7826087 352.521739,34.7826087 Z M39.4782609,0 C41.3982609,0 42.9565217,1.55826087 42.9565217,3.47826087 C42.9565217,5.39826087 41.3982609,6.95652174 39.4782609,6.95652174 C37.5582609,6.95652174 36,5.39826087 36,3.47826087 C36,1.55826087 37.5582609,0 39.4782609,0 Z M74.2608696,0 C76.1808696,0 77.7391304,1.55826087 77.7391304,3.47826087 C77.7391304,5.39826087 76.1808696,6.95652174 74.2608696,6.95652174 C72.3408696,6.95652174 70.7826087,5.39826087 70.7826087,3.47826087 C70.7826087,1.55826087 72.3408696,0 74.2608696,0 Z M109.043478,0 C110.963478,0 112.521739,1.55826087 112.521739,3.47826087 C112.521739,5.39826087 110.963478,6.95652174 109.043478,6.95652174 C107.123478,6.95652174 105.565217,5.39826087 105.565217,3.47826087 C105.565217,1.55826087 107.123478,0 109.043478,0 Z M143.826087,0 C145.746087,0 147.304348,1.55826087 147.304348,3.47826087 C147.304348,5.39826087 145.746087,6.95652174 143.826087,6.95652174 C141.906087,6.95652174 140.347826,5.39826087 140.347826,3.47826087 C140.347826,1.55826087 141.906087,0 143.826087,0 Z M178.608696,0 C180.528696,0 182.086957,1.55826087 182.086957,3.47826087 C182.086957,5.39826087 180.528696,6.95652174 178.608696,6.95652174 C176.688696,6.95652174 175.130435,5.39826087 175.130435,3.47826087 C175.130435,1.55826087 176.688696,0 178.608696,0 Z M213.391304,0 C215.311304,0 216.869565,1.55826087 216.869565,3.47826087 C216.869565,5.39826087 215.311304,6.95652174 213.391304,6.95652174 C211.471304,6.95652174 209.913043,5.39826087 209.913043,3.47826087 C209.913043,1.55826087 211.471304,0 213.391304,0 Z M248.173913,0 C250.093913,0 251.652174,1.55826087 251.652174,3.47826087 C251.652174,5.39826087 250.093913,6.95652174 248.173913,6.95652174 C246.253913,6.95652174 244.695652,5.39826087 244.695652,3.47826087 C244.695652,1.55826087 246.253913,0 248.173913,0 Z M282.956522,0 C284.876522,0 286.434783,1.55826087 286.434783,3.47826087 C286.434783,5.39826087 284.876522,6.95652174 282.956522,6.95652174 C281.036522,6.95652174 279.478261,5.39826087 279.478261,3.47826087 C279.478261,1.55826087 281.036522,0 282.956522,0 Z M317.73913,0 C319.662609,0 321.217391,1.55826087 321.217391,3.47826087 C321.217391,5.39826087 319.662609,6.95652174 317.73913,6.95652174 C315.815652,6.95652174 314.26087,5.39826087 314.26087,3.47826087 C314.26087,1.55826087 315.815652,0 317.73913,0 Z M352.521739,0 C354.445217,0 356,1.55826087 356,3.47826087 C356,5.39826087 354.445217,6.95652174 352.521739,6.95652174 C350.598261,6.95652174 349.043478,5.39826087 349.043478,3.47826087 C349.043478,1.55826087 350.598261,0 352.521739,0 Z" id="path-4"></path>
    </defs>
    <g id="Website" stroke="none" stroke-width="1" fill="none" fill-rule="evenodd">
        <g id="Desktop" transform="translate(-876.000000, -280.000000)">
            <g id="Hero" transform="translate(202.000000, 251.000000)">
                <g id="pattern.hero" transform="translate(674.000000, 29.000000)">
                    <g id="Combined-Shape-Copy-2">
                        <use fill="#292E33" xlink:href="#path-2"></use>
                        <use fill="url(#linearGradient-1)" xlink:href="#path-2"></use>
                    </g>
                    <path d="M387.478261,626.043478 C389.398261,626.043478 390.956522,627.598261 390.956522,629.521739 C390.956522,631.445217 389.398261,633 387.478261,633 C385.558261,633 384,631.445217 384,629.521739 C384,627.598261 385.558261,626.043478 387.478261,626.043478 Z M422.26087,626.043478 C424.18087,626.043478 425.73913,627.598261 425.73913,629.521739 C425.73913,631.445217 424.18087,633 422.26087,633 C420.34087,633 418.782609,631.445217 418.782609,629.521739 C418.782609,627.598261 420.34087,626.043478 422.26087,626.043478 Z M457.043478,626.043478 C458.963478,626.043478 460.521739,627.598261 460.521739,629.521739 C460.521739,631.445217 458.963478,633 457.043478,633 C455.123478,633 453.565217,631.445217 453.565217,629.521739 C453.565217,627.598261 455.123478,626.043478 457.043478,626.043478 Z M491.826087,626.043478 C493.746087,626.043478 495.304348,627.598261 495.304348,629.521739 C495.304348,631.445217 493.746087,633 491.826087,633 C489.906087,633 488.347826,631.445217 488.347826,629.521739 C488.347826,627.598261 489.906087,626.043478 491.826087,626.043478 Z M526.608696,626.043478 C528.528696,626.043478 530.086957,627.598261 530.086957,629.521739 C530.086957,631.445217 528.528696,633 526.608696,633 C524.688696,633 523.130435,631.445217 523.130435,629.521739 C523.130435,627.598261 524.688696,626.043478 526.608696,626.043478 Z M561.391304,626.043478 C563.311304,626.043478 564.869565,627.598261 564.869565,629.521739 C564.869565,631.445217 563.311304,633 561.391304,633 C559.471304,633 557.913043,631.445217 557.913043,629.521739 C557.913043,627.598261 559.471304,626.043478 561.391304,626.043478 Z M596.173913,626.043478 C598.093913,626.043478 599.652174,627.598261 599.652174,629.521739 C599.652174,631.445217 598.093913,633 596.173913,633 C594.253913,633 592.695652,631.445217 592.695652,629.521739 C592.695652,627.598261 594.253913,626.043478 596.173913,626.043478 Z M630.956522,626.043478 C632.876522,626.043478 634.434783,627.598261 634.434783,629.521739 C634.434783,631.445217 632.876522,633 630.956522,633 C629.036522,633 627.478261,631.445217 627.478261,629.521739 C627.478261,627.598261 629.036522,626.043478 630.956522,626.043478 Z M665.73913,626.043478 C667.662609,626.043478 669.217391,627.598261 669.217391,629.521739 C669.217391,631.445217 667.662609,633 665.73913,633 C663.815652,633 662.26087,631.445217 662.26087,629.521739 C662.26087,627.598261 663.815652,626.043478 665.73913,626.043478 Z M700.521739,626.043478 C702.445217,626.043478 704,627.598261 704,629.521739 C704,631.445217 702.445217,633 700.521739,633 C698.598261,633 697.043478,631.445217 697.043478,629.521739 C697.043478,627.598261 698.598261,626.043478 700.521739,626.043478 Z M387.478261,591.26087 C389.398261,591.26087 390.956522,592.815652 390.956522,594.73913 C390.956522,596.662609 389.398261,598.217391 387.478261,598.217391 C385.558261,598.217391 384,596.662609 384,594.73913 C384,592.815652 385.558261,591.26087 387.478261,591.26087 Z M422.26087,591.26087 C424.18087,591.26087 425.73913,592.815652 425.73913,594.73913 C425.73913,596.662609 424.18087,598.217391 422.26087,598.217391 C420.34087,598.217391 418.782609,596.662609 418.782609,594.73913 C418.782609,592.815652 420.34087,591.26087 422.26087,591.26087 Z M457.043478,591.26087 C458.963478,591.26087 460.521739,592.815652 460.521739,594.73913 C460.521739,596.662609 458.963478,598.217391 457.043478,598.217391 C455.123478,598.217391 453.565217,596.662609 453.565217,594.73913 C453.565217,592.815652 455.123478,591.26087 457.043478,591.26087 Z M491.826087,591.26087 C493.746087,591.26087 495.304348,592.815652 495.304348,594.73913 C495.304348,596.662609 493.746087,598.217391 491.826087,598.217391 C489.906087,598.217391 488.347826,596.662609 488.347826,594.73913 C488.347826,592.815652 489.906087,591.26087 491.826087,591.26087 Z M526.608696,591.26087 C528.528696,591.26087 530.086957,592.815652 530.086957,594.73913 C530.086957,596.662609 528.528696,598.217391 526.608696,598.217391 C524.688696,598.217391 523.130435,596.662609 523.130435,594.73913 C523.130435,592.815652 524.688696,591.26087 526.608696,591.26087 Z M561.391304,591.26087 C563.311304,591.26087 564.869565,592.815652 564.869565,594.73913 C564.869565,596.662609 563.311304,598.217391 561.391304,598.217391 C559.471304,598.217391 557.913043,596.662609 557.913043,594.73913 C557.913043,592.815652 559.471304,591.26087 561.391304,591.26087 Z M596.173913,591.26087 C598.093913,591.26087 599.652174,592.815652 599.652174,594.73913 C599.652174,596.662609 598.093913,598.217391 596.173913,598.217391 C594.253913,598.217391 592.695652,596.662609 592.695652,594.73913 C592.695652,592.815652 594.253913,591.26087 596.173913,591.26087 Z M630.956522,591.26087 C632.876522,591.26087 634.434783,592.815652 634.434783,594.73913 C634.434783,596.662609 632.876522,598.217391 630.956522,598.217391 C629.036522,598.217391 627.478261,596.662609 627.478261,594.73913 C627.478261,592.815652 629.036522,591.26087 630.956522,591.26087 Z M665.73913,591.26087 C667.662609,591.26087 669.217391,592.815652 669.217391,594.73913 C669.217391,596.662609 667.662609,598.217391 665.73913,598.217391 C663.815652,598.217391 662.26087,596.662609 662.26087,594.73913 C662.26087,592.815652 663.815652,591.26087 665.73913,591.26087 Z M700.521739,591.26087 C702.445217,591.26087 704,592.815652 704,594.73913 C704,596.662609 702.445217,598.217391 700.521739,598.217391 C698.598261,598.217391 697.043478,596.662609 697.043478,594.73913 C697.043478,592.815652 698.598261,591.26087 700.521739,591.26087 Z M387.478261,556.478261 C389.398261,556.478261 390.956522,558.033043 390.956522,559.956522 C390.956522,561.88 389.398261,563.434783 387.478261,563.434783 C385.558261,563.434783 384,561.88 384,559.956522 C384,558.033043 385.558261,556.478261 387.478261,556.478261 Z M422.26087,556.478261 C424.18087,556.478261 425.73913,558.033043 425.73913,559.956522 C425.73913,561.88 424.18087,563.434783 422.26087,563.434783 C420.34087,563.434783 418.782609,561.88 418.782609,559.956522 C418.782609,558.033043 420.34087,556.478261 422.26087,556.478261 Z M457.043478,556.478261 C458.963478,556.478261 460.521739,558.033043 460.521739,559.956522 C460.521739,561.88 458.963478,563.434783 457.043478,563.434783 C455.123478,563.434783 453.565217,561.88 453.565217,559.956522 C453.565217,558.033043 455.123478,556.478261 457.043478,556.478261 Z M491.826087,556.478261 C493.746087,556.478261 495.304348,558.033043 495.304348,559.956522 C495.304348,561.88 493.746087,563.434783 491.826087,563.434783 C489.906087,563.434783 488.347826,561.88 488.347826,559.956522 C488.347826,558.033043 489.906087,556.478261 491.826087,556.478261 Z M526.608696,556.478261 C528.528696,556.478261 530.086957,558.033043 530.086957,559.956522 C530.086957,561.88 528.528696,563.434783 526.608696,563.434783 C524.688696,563.434783 523.130435,561.88 523.130435,559.956522 C523.130435,558.033043 524.688696,556.478261 526.608696,556.478261 Z M561.391304,556.478261 C563.311304,556.478261 564.869565,558.033043 564.869565,559.956522 C564.869565,561.88 563.311304,563.434783 561.391304,563.434783 C559.471304,563.434783 557.913043,561.88 557.913043,559.956522 C557.913043,558.033043 559.471304,556.478261 561.391304,556.478261 Z M596.173913,556.478261 C598.093913,556.478261 599.652174,558.033043 599.652174,559.956522 C599.652174,561.88 598.093913,563.434783 596.173913,563.434783 C594.253913,563.434783 592.695652,561.88 592.695652,559.956522 C592.695652,558.033043 594.253913,556.478261 596.173913,556.478261 Z M630.956522,556.478261 C632.876522,556.478261 634.434783,558.033043 634.434783,559.956522 C634.434783,561.88 632.876522,563.434783 630.956522,563.434783 C629.036522,563.434783 627.478261,561.88 627.478261,559.956522 C627.478261,558.033043 629.036522,556.478261 630.956522,556.478261 Z M665.73913,556.478261 C667.662609,556.478261 669.217391,558.033043 669.217391,559.956522 C669.217391,561.88 667.662609,563.434783 665.73913,563.434783 C663.815652,563.434783 662.26087,561.88 662.26087,559.956522 C662.26087,558.033043 663.815652,556.478261 665.73913,556.478261 Z M700.521739,556.478261 C702.445217,556.478261 704,558.033043 704,559.956522 C704,561.88 702.445217,563.434783 700.521739,563.434783 C698.598261,563.434783 697.043478,561.88 697.043478,559.956522 C697.043478,558.033043 698.598261,556.478261 700.521739,556.478261 Z M387.478261,521.695652 C389.398261,521.695652 390.956522,523.250435 390.956522,525.173913 C390.956522,527.097391 389.398261,528.652174 387.478261,528.652174 C385.558261,528.652174 384,527.097391 384,525.173913 C384,523.250435 385.558261,521.695652 387.478261,521.695652 Z M422.26087,521.695652 C424.18087,521.695652 425.73913,523.250435 425.73913,525.173913 C425.73913,527.097391 424.18087,528.652174 422.26087,528.652174 C420.34087,528.652174 418.782609,527.097391 418.782609,525.173913 C418.782609,523.250435 420.34087,521.695652 422.26087,521.695652 Z M457.043478,521.695652 C458.963478,521.695652 460.521739,523.250435 460.521739,525.173913 C460.521739,527.097391 458.963478,528.652174 457.043478,528.652174 C455.123478,528.652174 453.565217,527.097391 453.565217,525.173913 C453.565217,523.250435 455.123478,521.695652 457.043478,521.695652 Z M491.826087,521.695652 C493.746087,521.695652 495.304348,523.250435 495.304348,525.173913 C495.304348,527.097391 493.746087,528.652174 491.826087,528.652174 C489.906087,528.652174 488.347826,527.097391 488.347826,525.173913 C488.347826,523.250435 489.906087,521.695652 491.826087,521.695652 Z M526.608696,521.695652 C528.528696,521.695652 530.086957,523.250435 530.086957,525.173913 C530.086957,527.097391 528.528696,528.652174 526.608696,528.652174 C524.688696,528.652174 523.130435,527.097391 523.130435,525.173913 C523.130435,523.250435 524.688696,521.695652 526.608696,521.695652 Z M561.391304,521.695652 C563.311304,521.695652 564.869565,523.250435 564.869565,525.173913 C564.869565,527.097391 563.311304,528.652174 561.391304,528.652174 C559.471304,528.652174 557.913043,527.097391 557.913043,525.173913 C557.913043,523.250435 559.471304,521.695652 561.391304,521.695652 Z M596.173913,521.695652 C598.093913,521.695652 599.652174,523.250435 599.652174,525.173913 C599.652174,527.097391 598.093913,528.652174 596.173913,528.652174 C594.253913,528.652174 592.695652,527.097391 592.695652,525.173913 C592.695652,523.250435 594.253913,521.695652 596.173913,521.695652 Z M630.956522,521.695652 C632.876522,521.695652 634.434783,523.250435 634.434783,525.173913 C634.434783,527.097391 632.876522,528.652174 630.956522,528.652174 C629.036522,528.652174 627.478261,527.097391 627.478261,525.173913 C627.478261,523.250435 629.036522,521.695652 630.956522,521.695652 Z M665.73913,521.695652 C667.662609,521.695652 669.217391,523.250435 669.217391,525.173913 C669.217391,527.097391 667.662609,528.652174 665.73913,528.652174 C663.815652,528.652174 662.26087,527.097391 662.26087,525.173913 C662.26087,523.250435 663.815652,521.695652 665.73913,521.695652 Z M700.521739,521.695652 C702.445217,521.695652 704,523.250435 704,525.173913 C704,527.097391 702.445217,528.652174 700.521739,528.652174 C698.598261,528.652174 697.043478,527.097391 697.043478,525.173913 C697.043478,523.250435 698.598261,521.695652 700.521739,521.695652 Z M387.478261,486.913043 C389.398261,486.913043 390.956522,488.467826 390.956522,490.391304 C390.956522,492.314783 389.398261,493.869565 387.478261,493.869565 C385.558261,493.869565 384,492.314783 384,490.391304 C384,488.467826 385.558261,486.913043 387.478261,486.913043 Z M422.26087,486.913043 C424.18087,486.913043 425.73913,488.467826 425.73913,490.391304 C425.73913,492.314783 424.18087,493.869565 422.26087,493.869565 C420.34087,493.869565 418.782609,492.314783 418.782609,490.391304 C418.782609,488.467826 420.34087,486.913043 422.26087,486.913043 Z M457.043478,486.913043 C458.963478,486.913043 460.521739,488.467826 460.521739,490.391304 C460.521739,492.314783 458.963478,493.869565 457.043478,493.869565 C455.123478,493.869565 453.565217,492.314783 453.565217,490.391304 C453.565217,488.467826 455.123478,486.913043 457.043478,486.913043 Z M491.826087,486.913043 C493.746087,486.913043 495.304348,488.467826 495.304348,490.391304 C495.304348,492.314783 493.746087,493.869565 491.826087,493.869565 C489.906087,493.869565 488.347826,492.314783 488.347826,490.391304 C488.347826,488.467826 489.906087,486.913043 491.826087,486.913043 Z M526.608696,486.913043 C528.528696,486.913043 530.086957,488.467826 530.086957,490.391304 C530.086957,492.314783 528.528696,493.869565 526.608696,493.869565 C524.688696,493.869565 523.130435,492.314783 523.130435,490.391304 C523.130435,488.467826 524.688696,486.913043 526.608696,486.913043 Z M561.391304,486.913043 C563.311304,486.913043 564.869565,488.467826 564.869565,490.391304 C564.869565,492.314783 563.311304,493.869565 561.391304,493.869565 C559.471304,493.869565 557.913043,492.314783 557.913043,490.391304 C557.913043,488.467826 559.471304,486.913043 561.391304,486.913043 Z M596.173913,486.913043 C598.093913,486.913043 599.652174,488.467826 599.652174,490.391304 C599.652174,492.314783 598.093913,493.869565 596.173913,493.869565 C594.253913,493.869565 592.695652,492.314783 592.695652,490.391304 C592.695652,488.467826 594.253913,486.913043 596.173913,486.913043 Z M630.956522,486.913043 C632.876522,486.913043 634.434783,488.467826 634.434783,490.391304 C634.434783,492.314783 632.876522,493.869565 630.956522,493.869565 C629.036522,493.869565 627.478261,492.314783 627.478261,490.391304 C627.478261,488.467826 629.036522,486.913043 630.956522,486.913043 Z M665.73913,486.913043 C667.662609,486.913043 669.217391,488.467826 669.217391,490.391304 C669.217391,492.314783 667.662609,493.869565 665.73913,493.869565 C663.815652,493.869565 662.26087,492.314783 662.26087,490.391304 C662.26087,488.467826 663.815652,486.913043 665.73913,486.913043 Z M700.521739,486.913043 C702.445217,486.913043 704,488.467826 704,490.391304 C704,492.314783 702.445217,493.869565 700.521739,493.869565 C698.598261,493.869565 697.043478,492.314783 697.043478,490.391304 C697.043478,488.467826 698.598261,486.913043 700.521739,486.913043 Z M387.478261,452.130435 C389.398261,452.130435 390.956522,453.685217 390.956522,455.608696 C390.956522,457.532174 389.398261,459.086957 387.478261,459.086957 C385.558261,459.086957 384,457.532174 384,455.608696 C384,453.685217 385.558261,452.130435 387.478261,452.130435 Z M422.26087,452.130435 C424.18087,452.130435 425.73913,453.685217 425.73913,455.608696 C425.73913,457.532174 424.18087,459.086957 422.26087,459.086957 C420.34087,459.086957 418.782609,457.532174 418.782609,455.608696 C418.782609,453.685217 420.34087,452.130435 422.26087,452.130435 Z M457.043478,452.130435 C458.963478,452.130435 460.521739,453.685217 460.521739,455.608696 C460.521739,457.532174 458.963478,459.086957 457.043478,459.086957 C455.123478,459.086957 453.565217,457.532174 453.565217,455.608696 C453.565217,453.685217 455.123478,452.130435 457.043478,452.130435 Z M491.826087,452.130435 C493.746087,452.130435 495.304348,453.685217 495.304348,455.608696 C495.304348,457.532174 493.746087,459.086957 491.826087,459.086957 C489.906087,459.086957 488.347826,457.532174 488.347826,455.608696 C488.347826,453.685217 489.906087,452.130435 491.826087,452.130435 Z M526.608696,452.130435 C528.528696,452.130435 530.086957,453.685217 530.086957,455.608696 C530.086957,457.532174 528.528696,459.086957 526.608696,459.086957 C524.688696,459.086957 523.130435,457.532174 523.130435,455.608696 C523.130435,453.685217 524.688696,452.130435 526.608696,452.130435 Z M561.391304,452.130435 C563.311304,452.130435 564.869565,453.685217 564.869565,455.608696 C564.869565,457.532174 563.311304,459.086957 561.391304,459.086957 C559.471304,459.086957 557.913043,457.532174 557.913043,455.608696 C557.913043,453.685217 559.471304,452.130435 561.391304,452.130435 Z M596.173913,452.130435 C598.093913,452.130435 599.652174,453.685217 599.652174,455.608696 C599.652174,457.532174 598.093913,459.086957 596.173913,459.086957 C594.253913,459.086957 592.695652,457.532174 592.695652,455.608696 C592.695652,453.685217 594.253913,452.130435 596.173913,452.130435 Z M630.956522,452.130435 C632.876522,452.130435 634.434783,453.685217 634.434783,455.608696 C634.434783,457.532174 632.876522,459.086957 630.956522,459.086957 C629.036522,459.086957 627.478261,457.532174 627.478261,455.608696 C627.478261,453.685217 629.036522,452.130435 630.956522,452.130435 Z M665.73913,452.130435 C667.662609,452.130435 669.217391,453.685217 669.217391,455.608696 C669.217391,457.532174 667.662609,459.086957 665.73913,459.086957 C663.815652,459.086957 662.26087,457.532174 662.26087,455.608696 C662.26087,453.685217 663.815652,452.130435 665.73913,452.130435 Z M700.521739,452.130435 C702.445217,452.130435 704,453.685217 704,455.608696 C704,457.532174 702.445217,459.086957 700.521739,459.086957 C698.598261,459.086957 697.043478,457.532174 697.043478,455.608696 C697.043478,453.685217 698.598261,452.130435 700.521739,452.130435 Z M387.478261,417.347826 C389.398261,417.347826 390.956522,418.906087 390.956522,420.826087 C390.956522,422.746087 389.398261,424.304348 387.478261,424.304348 C385.558261,424.304348 384,422.746087 384,420.826087 C384,418.906087 385.558261,417.347826 387.478261,417.347826 Z M422.26087,417.347826 C424.18087,417.347826 425.73913,418.906087 425.73913,420.826087 C425.73913,422.746087 424.18087,424.304348 422.26087,424.304348 C420.34087,424.304348 418.782609,422.746087 418.782609,420.826087 C418.782609,418.906087 420.34087,417.347826 422.26087,417.347826 Z M457.043478,417.347826 C458.963478,417.347826 460.521739,418.906087 460.521739,420.826087 C460.521739,422.746087 458.963478,424.304348 457.043478,424.304348 C455.123478,424.304348 453.565217,422.746087 453.565217,420.826087 C453.565217,418.906087 455.123478,417.347826 457.043478,417.347826 Z M491.826087,417.347826 C493.746087,417.347826 495.304348,418.906087 495.304348,420.826087 C495.304348,422.746087 493.746087,424.304348 491.826087,424.304348 C489.906087,424.304348 488.347826,422.746087 488.347826,420.826087 C488.347826,418.906087 489.906087,417.347826 491.826087,417.347826 Z M526.608696,417.347826 C528.528696,417.347826 530.086957,418.906087 530.086957,420.826087 C530.086957,422.746087 528.528696,424.304348 526.608696,424.304348 C524.688696,424.304348 523.130435,422.746087 523.130435,420.826087 C523.130435,418.906087 524.688696,417.347826 526.608696,417.347826 Z M561.391304,417.347826 C563.311304,417.347826 564.869565,418.906087 564.869565,420.826087 C564.869565,422.746087 563.311304,424.304348 561.391304,424.304348 C559.471304,424.304348 557.913043,422.746087 557.913043,420.826087 C557.913043,418.906087 559.471304,417.347826 561.391304,417.347826 Z M596.173913,417.347826 C598.093913,417.347826 599.652174,418.906087 599.652174,420.826087 C599.652174,422.746087 598.093913,424.304348 596.173913,424.304348 C594.253913,424.304348 592.695652,422.746087 592.695652,420.826087 C592.695652,418.906087 594.253913,417.347826 596.173913,417.347826 Z M630.956522,417.347826 C632.876522,417.347826 634.434783,418.906087 634.434783,420.826087 C634.434783,422.746087 632.876522,424.304348 630.956522,424.304348 C629.036522,424.304348 627.478261,422.746087 627.478261,420.826087 C627.478261,418.906087 629.036522,417.347826 630.956522,417.347826 Z M665.73913,417.347826 C667.662609,417.347826 669.217391,418.906087 669.217391,420.826087 C669.217391,422.746087 667.662609,424.304348 665.73913,424.304348 C663.815652,424.304348 662.26087,422.746087 662.26087,420.826087 C662.26087,418.906087 663.815652,417.347826 665.73913,417.347826 Z M700.521739,417.347826 C702.445217,417.347826 704,418.906087 704,420.826087 C704,422.746087 702.445217,424.304348 700.521739,424.304348 C698.598261,424.304348 697.043478,422.746087 697.043478,420.826087 C697.043478,418.906087 698.598261,417.347826 700.521739,417.347826 Z M387.478261,382.565217 C389.398261,382.565217 390.956522,384.123478 390.956522,386.043478 C390.956522,387.963478 389.398261,389.521739 387.478261,389.521739 C385.558261,389.521739 384,387.963478 384,386.043478 C384,384.123478 385.558261,382.565217 387.478261,382.565217 Z M422.26087,382.565217 C424.18087,382.565217 425.73913,384.123478 425.73913,386.043478 C425.73913,387.963478 424.18087,389.521739 422.26087,389.521739 C420.34087,389.521739 418.782609,387.963478 418.782609,386.043478 C418.782609,384.123478 420.34087,382.565217 422.26087,382.565217 Z M457.043478,382.565217 C458.963478,382.565217 460.521739,384.123478 460.521739,386.043478 C460.521739,387.963478 458.963478,389.521739 457.043478,389.521739 C455.123478,389.521739 453.565217,387.963478 453.565217,386.043478 C453.565217,384.123478 455.123478,382.565217 457.043478,382.565217 Z M491.826087,382.565217 C493.746087,382.565217 495.304348,384.123478 495.304348,386.043478 C495.304348,387.963478 493.746087,389.521739 491.826087,389.521739 C489.906087,389.521739 488.347826,387.963478 488.347826,386.043478 C488.347826,384.123478 489.906087,382.565217 491.826087,382.565217 Z M526.608696,382.565217 C528.528696,382.565217 530.086957,384.123478 530.086957,386.043478 C530.086957,387.963478 528.528696,389.521739 526.608696,389.521739 C524.688696,389.521739 523.130435,387.963478 523.130435,386.043478 C523.130435,384.123478 524.688696,382.565217 526.608696,382.565217 Z M561.391304,382.565217 C563.311304,382.565217 564.869565,384.123478 564.869565,386.043478 C564.869565,387.963478 563.311304,389.521739 561.391304,389.521739 C559.471304,389.521739 557.913043,387.963478 557.913043,386.043478 C557.913043,384.123478 559.471304,382.565217 561.391304,382.565217 Z M596.173913,382.565217 C598.093913,382.565217 599.652174,384.123478 599.652174,386.043478 C599.652174,387.963478 598.093913,389.521739 596.173913,389.521739 C594.253913,389.521739 592.695652,387.963478 592.695652,386.043478 C592.695652,384.123478 594.253913,382.565217 596.173913,382.565217 Z M630.956522,382.565217 C632.876522,382.565217 634.434783,384.123478 634.434783,386.043478 C634.434783,387.963478 632.876522,389.521739 630.956522,389.521739 C629.036522,389.521739 627.478261,387.963478 627.478261,386.043478 C627.478261,384.123478 629.036522,382.565217 630.956522,382.565217 Z M665.73913,382.565217 C667.662609,382.565217 669.217391,384.123478 669.217391,386.043478 C669.217391,387.963478 667.662609,389.521739 665.73913,389.521739 C663.815652,389.521739 662.26087,387.963478 662.26087,386.043478 C662.26087,384.123478 663.815652,382.565217 665.73913,382.565217 Z M700.521739,382.565217 C702.445217,382.565217 704,384.123478 704,386.043478 C704,387.963478 702.445217,389.521739 700.521739,389.521739 C698.598261,389.521739 697.043478,387.963478 697.043478,386.043478 C697.043478,384.123478 698.598261,382.565217 700.521739,382.565217 Z M387.478261,347.782609 C389.398261,347.782609 390.956522,349.34087 390.956522,351.26087 C390.956522,353.18087 389.398261,354.73913 387.478261,354.73913 C385.558261,354.73913 384,353.18087 384,351.26087 C384,349.34087 385.558261,347.782609 387.478261,347.782609 Z M422.26087,347.782609 C424.18087,347.782609 425.73913,349.34087 425.73913,351.26087 C425.73913,353.18087 424.18087,354.73913 422.26087,354.73913 C420.34087,354.73913 418.782609,353.18087 418.782609,351.26087 C418.782609,349.34087 420.34087,347.782609 422.26087,347.782609 Z M457.043478,347.782609 C458.963478,347.782609 460.521739,349.34087 460.521739,351.26087 C460.521739,353.18087 458.963478,354.73913 457.043478,354.73913 C455.123478,354.73913 453.565217,353.18087 453.565217,351.26087 C453.565217,349.34087 455.123478,347.782609 457.043478,347.782609 Z M491.826087,347.782609 C493.746087,347.782609 495.304348,349.34087 495.304348,351.26087 C495.304348,353.18087 493.746087,354.73913 491.826087,354.73913 C489.906087,354.73913 488.347826,353.18087 488.347826,351.26087 C488.347826,349.34087 489.906087,347.782609 491.826087,347.782609 Z M526.608696,347.782609 C528.528696,347.782609 530.086957,349.34087 530.086957,351.26087 C530.086957,353.18087 528.528696,354.73913 526.608696,354.73913 C524.688696,354.73913 523.130435,353.18087 523.130435,351.26087 C523.130435,349.34087 524.688696,347.782609 526.608696,347.782609 Z M561.391304,347.782609 C563.311304,347.782609 564.869565,349.34087 564.869565,351.26087 C564.869565,353.18087 563.311304,354.73913 561.391304,354.73913 C559.471304,354.73913 557.913043,353.18087 557.913043,351.26087 C557.913043,349.34087 559.471304,347.782609 561.391304,347.782609 Z M596.173913,347.782609 C598.093913,347.782609 599.652174,349.34087 599.652174,351.26087 C599.652174,353.18087 598.093913,354.73913 596.173913,354.73913 C594.253913,354.73913 592.695652,353.18087 592.695652,351.26087 C592.695652,349.34087 594.253913,347.782609 596.173913,347.782609 Z M630.956522,347.782609 C632.876522,347.782609 634.434783,349.34087 634.434783,351.26087 C634.434783,353.18087 632.876522,354.73913 630.956522,354.73913 C629.036522,354.73913 627.478261,353.18087 627.478261,351.26087 C627.478261,349.34087 629.036522,347.782609 630.956522,347.782609 Z M665.73913,347.782609 C667.662609,347.782609 669.217391,349.34087 669.217391,351.26087 C669.217391,353.18087 667.662609,354.73913 665.73913,354.73913 C663.815652,354.73913 662.26087,353.18087 662.26087,351.26087 C662.26087,349.34087 663.815652,347.782609 665.73913,347.782609 Z M700.521739,347.782609 C702.445217,347.782609 704,349.34087 704,351.26087 C704,353.18087 702.445217,354.73913 700.521739,354.73913 C698.598261,354.73913 697.043478,353.18087 697.043478,351.26087 C697.043478,349.34087 698.598261,347.782609 700.521739,347.782609 Z M387.478261,313 C389.398261,313 390.956522,314.558261 390.956522,316.478261 C390.956522,318.398261 389.398261,319.956522 387.478261,319.956522 C385.558261,319.956522 384,318.398261 384,316.478261 C384,314.558261 385.558261,313 387.478261,313 Z M422.26087,313 C424.18087,313 425.73913,314.558261 425.73913,316.478261 C425.73913,318.398261 424.18087,319.956522 422.26087,319.956522 C420.34087,319.956522 418.782609,318.398261 418.782609,316.478261 C418.782609,314.558261 420.34087,313 422.26087,313 Z M457.043478,313 C458.963478,313 460.521739,314.558261 460.521739,316.478261 C460.521739,318.398261 458.963478,319.956522 457.043478,319.956522 C455.123478,319.956522 453.565217,318.398261 453.565217,316.478261 C453.565217,314.558261 455.123478,313 457.043478,313 Z M491.826087,313 C493.746087,313 495.304348,314.558261 495.304348,316.478261 C495.304348,318.398261 493.746087,319.956522 491.826087,319.956522 C489.906087,319.956522 488.347826,318.398261 488.347826,316.478261 C488.347826,314.558261 489.906087,313 491.826087,313 Z M526.608696,313 C528.528696,313 530.086957,314.558261 530.086957,316.478261 C530.086957,318.398261 528.528696,319.956522 526.608696,319.956522 C524.688696,319.956522 523.130435,318.398261 523.130435,316.478261 C523.130435,314.558261 524.688696,313 526.608696,313 Z M561.391304,313 C563.311304,313 564.869565,314.558261 564.869565,316.478261 C564.869565,318.398261 563.311304,319.956522 561.391304,319.956522 C559.471304,319.956522 557.913043,318.398261 557.913043,316.478261 C557.913043,314.558261 559.471304,313 561.391304,313 Z M596.173913,313 C598.093913,313 599.652174,314.558261 599.652174,316.478261 C599.652174,318.398261 598.093913,319.956522 596.173913,319.956522 C594.253913,319.956522 592.695652,318.398261 592.695652,316.478261 C592.695652,314.558261 594.253913,313 596.173913,313 Z M630.956522,313 C632.876522,313 634.434783,314.558261 634.434783,316.478261 C634.434783,318.398261 632.876522,319.956522 630.956522,319.956522 C629.036522,319.956522 627.478261,318.398261 627.478261,316.478261 C627.478261,314.558261 629.036522,313 630.956522,313 Z M665.73913,313 C667.662609,313 669.217391,314.558261 669.217391,316.478261 C669.217391,318.398261 667.662609,319.956522 665.73913,319.956522 C663.815652,319.956522 662.26087,318.398261 662.26087,316.478261 C662.26087,314.558261 663.815652,313 665.73913,313 Z M700.521739,313 C702.445217,313 704,314.558261 704,316.478261 C704,318.398261 702.445217,319.956522 700.521739,319.956522 C698.598261,319.956522 697.043478,318.398261 697.043478,316.478261 C697.043478,314.558261 698.598261,313 700.521739,313 Z" id="Combined-Shape-Copy" fill="#292E33"></path>
                    <g id="Combined-Shape-Copy-3">
                        <use fill="#292E33" xlink:href="#path-4"></use>
                        <use fill="url(#linearGradient-3)" xlink:href="#path-4"></use>
                    </g>
                    <g id="bright" opacity="0.800000012" transform="translate(0.565217, 34.782609)">
                        <path d="M108.478261,6.95652174 C110.398261,6.95652174 111.956522,5.39826087 111.956522,3.47826087 C111.956522,1.55826087 110.398261,5.68434189e-14 108.478261,5.68434189e-14 C106.558261,5.68434189e-14 105,1.55826087 105,3.47826087 C105,5.39826087 106.558261,6.95652174 108.478261,6.95652174" id="Fill-165" fill="#DEE2E6"></path>
                        <path d="M3.47826087,110.956522 C5.39826087,110.956522 6.95652174,109.398261 6.95652174,107.478261 C6.95652174,105.558261 5.39826087,104 3.47826087,104 C1.55826087,104 2.84217094e-14,105.558261 2.84217094e-14,107.478261 C2.84217094e-14,109.398261 1.55826087,110.956522 3.47826087,110.956522" id="Fill-165-Copy" fill="#868E95"></path>
                        <path d="M525.478261,214.956522 C527.398261,214.956522 528.956522,213.398261 528.956522,211.478261 C528.956522,209.558261 527.398261,208 525.478261,208 C523.558261,208 522,209.558261 522,211.478261 C522,213.398261 523.558261,214.956522 525.478261,214.956522" id="Fill-165-Copy-2" fill="#1889AB"></path>
                        <path d="M421.478261,354.956522 C423.398261,354.956522 424.956522,353.398261 424.956522,351.478261 C424.956522,349.558261 423.398261,348 421.478261,348 C419.558261,348 418,349.558261 418,351.478261 C418,353.398261 419.558261,354.956522 421.478261,354.956522" id="Fill-165-Copy-3" fill="#DEE2E6"></path>
                        <path d="M630.478261,389.956522 C632.398261,389.956522 633.956522,388.398261 633.956522,386.478261 C633.956522,384.558261 632.398261,383 630.478261,383 C628.558261,383 627,384.558261 627,386.478261 C627,388.398261 628.558261,389.956522 630.478261,389.956522" id="Fill-165-Copy-4" fill="#F7D707"></path>
                        <path d="M595.478261,458.956522 C597.398261,458.956522 598.956522,457.398261 598.956522,455.478261 C598.956522,453.558261 597.398261,452 595.478261,452 C593.558261,452 592,453.558261 592,455.478261 C592,457.398261 593.558261,458.956522 595.478261,458.956522" id="Fill-165-Copy-5" fill="#32D7F0"></path>
                        <path d="M491.478261,563.956522 C493.398261,563.956522 494.956522,562.398261 494.956522,560.478261 C494.956522,558.558261 493.398261,557 491.478261,557 C489.558261,557 488,558.558261 488,560.478261 C488,562.398261 489.558261,563.956522 491.478261,563.956522" id="Fill-165-Copy-6" fill="#DEE2E6"></path>
                        <path d="M247.478261,737.956522 C249.398261,737.956522 250.956522,736.398261 250.956522,734.478261 C250.956522,732.558261 249.398261,731 247.478261,731 C245.558261,731 244,732.558261 244,734.478261 C244,736.398261 245.558261,737.956522 247.478261,737.956522" id="Fill-165-Copy-7" fill="#DEE2E6"></path>
                        <path d="M108.478261,841.956522 C110.398261,841.956522 111.956522,840.398261 111.956522,838.478261 C111.956522,836.558261 110.398261,835 108.478261,835 C106.558261,835 105,836.558261 105,838.478261 C105,840.398261 106.558261,841.956522 108.478261,841.956522" id="Fill-165-Copy-8" fill="#32D7F0"></path>
                        <path d="M212.478261,946.956522 C214.398261,946.956522 215.956522,945.398261 215.956522,943.478261 C215.956522,941.558261 214.398261,940 212.478261,940 C210.558261,940 209,941.558261 209,943.478261 C209,945.398261 210.558261,946.956522 212.478261,946.956522" id="Fill-165-Copy-9" fill="#868E95"></path>
                    </g>
                </g>
            </g>
        </g>
    </g>
</svg>